<?xml version="1.0" encoding="utf-8"?>
<!-- Generator: Adobe Illustrator 25.0.0, SVG Export Plug-In . SVG Version: 6.00 Build 0)  -->
<svg version="1.1" xmlns="http://www.w3.org/2000/svg" xmlns:xlink="http://www.w3.org/1999/xlink" x="0px" y="0px"
	 viewBox="0 0 500 500" style="enable-background:new 0 0 500 500;" xml:space="preserve">
<style type="text/css">
	.st0{display:none;}
	.st1{display:inline;fill:#FFFFFF;}
	.st2{fill:#EDF0FF;}
	.st3{fill:#C5CDFC;}
	.st4{fill:#55D2D1;}
	.st5{fill:none;stroke:#C5CDFC;stroke-width:2;stroke-linecap:round;stroke-miterlimit:10;}
	.st6{fill:none;stroke:#000000;stroke-width:0.5;stroke-miterlimit:10;}
	.st7{fill:#95CFB6;stroke:#000000;stroke-width:0.5;stroke-miterlimit:10;}
	.st8{fill:none;stroke:#222221;stroke-width:0.5;stroke-miterlimit:10;}
	.st9{fill:#D47172;stroke:#000000;stroke-width:0.5;stroke-miterlimit:10;}
	.st10{fill:#D89CC7;stroke:#000000;stroke-width:0.5;stroke-miterlimit:10;}
	.st11{stroke:#000000;stroke-width:0.5;stroke-miterlimit:10;}
	.st12{clip-path:url(#SVGID_2_);stroke:#000000;stroke-width:0.5;stroke-miterlimit:10;}
	.st13{fill:#FFFFFF;stroke:#222221;stroke-width:0.5;stroke-miterlimit:10;}
	.st14{fill:#7696EA;stroke:#000000;stroke-width:0.5;stroke-miterlimit:10;}
	.st15{clip-path:url(#SVGID_4_);}
	.st16{fill:#5F76E8;stroke:#000000;stroke-width:0.5;stroke-miterlimit:10;}
	.st17{fill:none;stroke:#000000;stroke-width:4;stroke-miterlimit:10;}
	.st18{fill:none;stroke:#000000;stroke-linecap:round;stroke-miterlimit:10;}
	.st19{clip-path:url(#SVGID_6_);fill:#D47172;stroke:#000000;stroke-width:0.5;stroke-miterlimit:10;}
	.st20{fill:#FFFFFF;}
</style>
<g id="BACKGROUND" class="st0">
	<rect class="st1" width="500" height="500"/>
</g>
<g id="OBJECTS">
	<g>
		<path class="st2" d="M106.75,172.09c0.68-15.21,11.96-31.45,21.1-41.52c15.78-17.37,34.31-32.24,54.7-43.86
			c10.34-5.9,21.44-11.05,33.3-12.06c11.86-1.02,24.66,2.72,32.13,11.99c6.35,7.87,8.08,18.77,6.3,28.72
			c-1.78,9.95-6.74,19.07-12.61,27.3c-18.86,26.46-51.73,52.68-84.53,59.02c-15.27,2.95-36.74,0.91-46.24-13.62
			C107.68,183.11,106.5,177.67,106.75,172.09z"/>
		<path class="st2" d="M423.01,258c-5.69,24.58-15.63,48.07-30.11,70.35c-27.49,42.29-70.94,72.04-118.94,86.49
			c-34.39,10.35-69.42,7.9-104.55,2.69c-13.72-2.03-27.56-4.77-39.86-11.17c-39.06-20.32-50.82-69.63-36.27-109.09
			c6.97-18.9,20.15-37.11,37.91-47.15c24.36-13.77,53.65-15.7,77.29-31.52c29.59-19.8,44.83-54.86,69.87-80.17
			c18.52-18.72,43.2-32.1,69.48-33.82c21.61-1.42,44.48,5.73,60.29,20.81c16.59,15.82,19,43.89,20.25,65.62
			C429.71,214.16,427.99,236.5,423.01,258z"/>
		<g>
			<ellipse class="st3" cx="205.39" cy="201.76" rx="15.69" ry="15.5"/>
			<g>
				<path class="st4" d="M201.56,196.04C201.52,196.09,201.51,196.11,201.56,196.04L201.56,196.04z"/>
				<path class="st2" d="M200.81,194.34c-0.18-0.56-0.81-1.06-1.41-0.82c-2.59,1.01-4.61,3.09-5.59,5.76
					c-0.21,0.58,0.23,1.32,0.8,1.45c0.65,0.15,1.18-0.2,1.41-0.82c0.02-0.06,0.05-0.13,0.07-0.19c0,0,0,0,0-0.01
					c0.06-0.13,0.12-0.27,0.19-0.4c0.12-0.24,0.25-0.48,0.4-0.71c0.08-0.12,0.16-0.25,0.24-0.37c0.04-0.06,0.09-0.12,0.13-0.18
					c-0.03,0.05-0.05,0.08-0.07,0.1c0.02-0.03,0.05-0.07,0.07-0.09c0.17-0.22,0.36-0.43,0.56-0.63c0.2-0.2,0.4-0.39,0.61-0.57
					c0.01-0.01,0.01-0.01,0.02-0.02c0.05-0.03,0.11-0.09,0.15-0.12c0.11-0.08,0.22-0.16,0.33-0.23c0.23-0.16,0.47-0.3,0.71-0.43
					c0.13-0.07,0.26-0.13,0.39-0.19c0,0,0,0,0,0c0.06-0.03,0.13-0.05,0.19-0.08C200.57,195.57,201.01,194.98,200.81,194.34z"/>
				<path class="st2" d="M197.6,204.39c-0.23,0.54-0.06,1.33,0.55,1.54c2.64,0.9,5.51,0.61,7.99-0.81c0.53-0.31,0.67-1.16,0.32-1.62
					c-0.4-0.54-1.03-0.6-1.61-0.28c-0.06,0.03-0.12,0.07-0.18,0.1c0,0,0,0-0.01,0c-0.13,0.06-0.27,0.13-0.4,0.19
					c-0.25,0.11-0.5,0.2-0.76,0.29c-0.14,0.04-0.28,0.09-0.42,0.12c-0.07,0.02-0.14,0.03-0.21,0.05c0.06-0.02,0.09-0.02,0.11-0.03
					c-0.04,0.01-0.08,0.02-0.11,0.03c-0.28,0.06-0.55,0.1-0.83,0.13c-0.28,0.03-0.56,0.04-0.84,0.04c-0.01,0-0.02,0-0.02,0
					c-0.06-0.01-0.14,0-0.19-0.01c-0.13-0.01-0.27-0.02-0.4-0.03c-0.28-0.03-0.55-0.07-0.82-0.13c-0.14-0.03-0.28-0.07-0.42-0.1
					c0,0,0,0,0,0c-0.07-0.02-0.13-0.04-0.19-0.06C198.58,203.6,197.86,203.76,197.6,204.39z"/>
			</g>
			<path class="st2" d="M209.57,210.5c-0.16-0.61-0.79-0.96-1.37-0.8c-2.4,0.64-4.83,0.89-7.32,0.77c-0.6-0.03-1.11,0.55-1.11,1.15
				c0,0.65,0.51,1.12,1.11,1.15c2.66,0.13,5.33-0.17,7.91-0.86C209.38,211.76,209.73,211.09,209.57,210.5z"/>
			<path class="st2" d="M210.33,194.33c-0.21-0.21-0.5-0.36-0.8-0.35c-0.32,0.01-0.55,0.14-0.8,0.35c-0.11,0.09-0.21,0.18-0.32,0.27
				c-0.96,0.77-1.98,1.45-3.05,2.01c-0.53,0.28-0.72,1.12-0.4,1.63c0.35,0.57,0.98,0.73,1.54,0.43c1.37-0.72,2.65-1.63,3.83-2.66
				c0.21-0.18,0.33-0.57,0.33-0.84C210.66,194.89,210.53,194.54,210.33,194.33z"/>
			<path class="st2" d="M214.3,199.97c-0.05-0.6-0.47-1.18-1.11-1.15c-0.56,0.03-1.17,0.51-1.11,1.15c0.08,0.92,0.11,1.85,0.08,2.78
				c-0.02,0.45-0.05,0.91-0.09,1.36c-0.01,0.11-0.02,0.22-0.04,0.33c0,0.03-0.02,0.12-0.02,0.17c-0.03,0.24-0.07,0.47-0.11,0.71
				c-0.1,0.59,0.15,1.27,0.78,1.41c0.54,0.13,1.26-0.17,1.37-0.8C214.38,203.96,214.48,201.96,214.3,199.97z"/>
		</g>
		<path class="st5" d="M393.39,84.16H179.98c-1.52,0-2.75,1.26-2.75,2.82v10.45"/>
		<path class="st5" d="M419.66,98.34H167.03c-1.56,0-2.82,1.26-2.82,2.82v52.66c0,8.29-6.09,15.32-14.29,16.53
			c-13.88,2.06-23.08-3.35-29.97-4c-6.66-0.62-26.61-0.41-33.29-0.41c-6.41,0-10.94-0.57-7.97,8.37c1.05,3.17,4.2,5.94,7.64,4.88
			c1.02-0.32,1.73-1.37,1.48-2.41c-0.29-1.22-1.64-1.53-2.78-1.54c-4.71-0.07-10.97,1.82-9.83,7.78c0.52,2.68,2.69,4.9,5.27,5.78
			c1.52,0.52,3.37,0.58,4.49-0.75c0.49-0.58,0.66-1.41,0.38-2.11c-0.43-1.08-1.43-1.24-2.35-1.26c-4.5-0.06-9.36,3.1-8.75,8.03
			c0.44,3.57,3.6,7.39,7.5,6.75c1.58-0.26,3.47-1.09,3.31-3.01c-0.11-1.22-1.07-2.26-2.21-2.69c-1.15-0.43-2.44-0.32-3.61,0.04
			c-1.81,0.57-3.47,1.84-4.1,3.63c-0.4,1.15-0.34,2.39-0.28,3.6c0.37,6.83,0.96,13.66,1.75,20.46"/>
		<path class="st5" d="M62.52,255.86l0.98,92.5c0.08,7.4,5.64,13.32,12.41,13.21l52.04-0.9V250.95c0-5.36-3.97-9.7-8.87-9.7H78.31"
			/>
		<line class="st5" x1="421.25" y1="420.74" x2="127.96" y2="420.74"/>
		<path d="M407.46,100.61h-16.07c-1.39,0-2.52-1.13-2.52-2.52l0,0c0-1.39,1.13-2.52,2.52-2.52h16.07c1.39,0,2.52,1.13,2.52,2.52l0,0
			C409.98,99.48,408.85,100.61,407.46,100.61z"/>
		<path d="M408.46,87.16h-16.07c-1.39,0-2.52-1.13-2.52-2.52l0,0c0-1.39,1.13-2.52,2.52-2.52h16.07c1.39,0,2.52,1.13,2.52,2.52l0,0
			C410.98,86.03,409.85,87.16,408.46,87.16z"/>
		<g>
			<g>
				<line class="st6" x1="51.84" y1="268.63" x2="49.96" y2="313.18"/>
				<line class="st6" x1="98.02" y1="268.63" x2="99.89" y2="313.18"/>
			</g>
			<path class="st7" d="M112.66,270.13H38.32c-3.73,0-6.76-3.03-6.76-6.76l0,0c0-3.73,3.03-6.76,6.76-6.76h74.33
				c3.73,0,6.76,3.03,6.76,6.76l0,0C119.41,267.1,116.39,270.13,112.66,270.13z"/>
		</g>
		<g>
			<g>
				<g>
					<g>
						<g>
							<g>
								<g>
									<g>
										<path class="st3" d="M109.8,126.99c0.95-1.69,1.72-3.45,2.31-5.24c-0.17,0-0.34,0.01-0.51-0.02
											c-2.65-0.35-4.47-2.79-4.07-5.45c0.4-2.66,2.88-4.53,5.53-4.18c0.19,0.02,0.36,0.08,0.54,0.13
											c-0.01-1.91-0.21-3.8-0.59-5.66c-0.16,0.09-0.31,0.19-0.48,0.26c-2.5,1.03-5.31-0.15-6.29-2.63
											c-0.98-2.48,0.26-5.32,2.76-6.35c0.2-0.08,0.4-0.12,0.59-0.18c-0.96-1.62-2.08-3.16-3.37-4.59
											c-0.11,0.17-0.2,0.35-0.33,0.52c-1.68,2.13-4.73,2.53-6.82,0.9c-2.09-1.63-2.43-4.68-0.76-6.81
											c0.15-0.19,0.32-0.34,0.48-0.5c-1.7-0.94-3.48-1.7-5.29-2.27c0,0.23,0,0.46-0.04,0.69c-0.4,2.66-2.88,4.53-5.53,4.18
											c-2.65-0.35-4.47-2.79-4.07-5.45c0.04-0.25,0.11-0.49,0.19-0.73c-1.95,0.05-3.9,0.29-5.81,0.72
											c0.12,0.21,0.25,0.42,0.34,0.65c0.98,2.48-0.26,5.32-2.76,6.35c-2.5,1.03-5.31-0.15-6.29-2.63
											c-0.1-0.25-0.16-0.51-0.21-0.76c-1.67,1.01-3.26,2.2-4.74,3.56c0.22,0.12,0.44,0.25,0.65,0.4
											c2.09,1.63,2.43,4.68,0.76,6.81c-1.67,2.13-4.73,2.53-6.82,0.9c-0.21-0.17-0.4-0.36-0.57-0.55
											c-0.98,1.75-1.77,3.57-2.37,5.42c0.25-0.01,0.51-0.01,0.77,0.02c2.65,0.35,4.47,2.79,4.07,5.45
											c-0.4,2.66-2.88,4.53-5.53,4.18c-0.26-0.03-0.5-0.1-0.75-0.18c0.02,1.95,0.24,3.89,0.64,5.8
											c0.21-0.12,0.41-0.25,0.64-0.34c2.5-1.03,5.31,0.15,6.29,2.63c0.98,2.48-0.26,5.32-2.76,6.35
											c-0.23,0.09-0.46,0.15-0.69,0.21c0.98,1.63,2.13,3.17,3.44,4.6c0.11-0.19,0.22-0.38,0.36-0.56
											c1.67-2.13,4.73-2.53,6.82-0.9c2.09,1.63,2.43,4.68,0.76,6.81c-0.14,0.17-0.3,0.32-0.45,0.47c1.7,0.92,3.46,1.65,5.27,2.2
											c0.01-0.2,0-0.39,0.03-0.59c0.4-2.66,2.88-4.53,5.53-4.18c2.65,0.35,4.47,2.79,4.07,5.45c-0.03,0.2-0.09,0.38-0.14,0.56
											c1.91-0.07,3.8-0.31,5.67-0.74c-0.08-0.15-0.18-0.3-0.24-0.47c-0.98-2.48,0.26-5.32,2.76-6.35
											c2.5-1.03,5.31,0.15,6.29,2.63c0.07,0.17,0.1,0.34,0.14,0.52c1.61-0.99,3.15-2.14,4.58-3.45
											c-0.14-0.09-0.28-0.16-0.42-0.26c-2.09-1.63-2.43-4.68-0.76-6.81c1.67-2.13,4.73-2.53,6.82-0.9
											C109.56,126.74,109.67,126.87,109.8,126.99z M99.64,125.07c-6.83,8.68-19.27,10.31-27.81,3.66
											c-8.53-6.66-9.91-19.09-3.09-27.76c6.83-8.68,19.27-10.31,27.81-3.66C105.08,103.97,106.46,116.4,99.64,125.07z"/>
									</g>
									<path class="st3" d="M70.37,95.56c-9.78,7.82-11.55,22.01-3.93,31.65c7.61,9.63,21.76,11.11,31.55,3.3
										c9.78-7.82,11.55-22.01,3.94-31.65C94.31,89.23,80.15,87.75,70.37,95.56z M96.1,103.51c5.11,6.47,3.93,16.01-2.64,21.26
										c-6.57,5.25-16.08,4.26-21.19-2.22c-5.11-6.47-3.93-16.01,2.64-21.26C81.48,96.05,90.98,97.04,96.1,103.51z"/>
								</g>
							</g>
						</g>
					</g>
				</g>
			</g>
			<g>
				<g>
					<g>
						<g>
							<g>
								<g>
									<g>
										<path class="st3" d="M175.1,164.67c1.21-2.15,2.19-4.39,2.94-6.67c-0.22-0.01-0.43,0.01-0.65-0.02
											c-3.37-0.45-5.69-3.55-5.18-6.93c0.51-3.38,3.66-5.77,7.04-5.32c0.24,0.03,0.46,0.1,0.68,0.16
											c-0.02-2.42-0.27-4.84-0.75-7.2c-0.2,0.11-0.4,0.24-0.62,0.33c-3.18,1.31-6.76-0.19-8-3.35
											c-1.24-3.15,0.33-6.77,3.51-8.08c0.25-0.1,0.5-0.16,0.76-0.23c-1.22-2.06-2.65-4.02-4.29-5.84
											c-0.13,0.22-0.26,0.45-0.42,0.66c-2.13,2.71-6.02,3.22-8.68,1.14c-2.66-2.08-3.09-5.96-0.96-8.67
											c0.19-0.24,0.4-0.44,0.61-0.64c-2.17-1.2-4.43-2.16-6.74-2.88c0,0.29,0,0.58-0.04,0.88c-0.51,3.38-3.66,5.77-7.04,5.32
											c-3.37-0.45-5.69-3.55-5.18-6.93c0.05-0.32,0.14-0.63,0.24-0.93c-2.48,0.06-4.96,0.37-7.39,0.92
											c0.16,0.27,0.31,0.53,0.43,0.83c1.24,3.15-0.33,6.77-3.51,8.08c-3.18,1.31-6.76-0.19-8-3.35
											c-0.13-0.32-0.2-0.64-0.27-0.97c-2.13,1.29-4.15,2.8-6.03,4.52c0.28,0.15,0.56,0.31,0.82,0.52
											c2.66,2.08,3.09,5.96,0.96,8.67c-2.13,2.71-6.02,3.22-8.68,1.14c-0.27-0.21-0.5-0.45-0.73-0.7
											c-1.25,2.23-2.25,4.54-3.01,6.9c0.32-0.01,0.65-0.01,0.97,0.03c3.37,0.45,5.69,3.55,5.18,6.94
											c-0.51,3.38-3.66,5.77-7.04,5.32c-0.33-0.04-0.64-0.13-0.95-0.22c0.03,2.48,0.3,4.95,0.82,7.37
											c0.26-0.16,0.53-0.31,0.82-0.43c3.18-1.31,6.76,0.19,8,3.35c1.24,3.15-0.33,6.77-3.51,8.08
											c-0.29,0.12-0.59,0.19-0.88,0.26c1.24,2.07,2.71,4.03,4.38,5.85c0.14-0.24,0.28-0.48,0.45-0.71
											c2.13-2.71,6.02-3.22,8.68-1.14c2.66,2.08,3.09,5.96,0.96,8.67c-0.17,0.22-0.38,0.4-0.57,0.59c2.16,1.17,4.4,2.1,6.7,2.8
											c0.01-0.25,0-0.5,0.04-0.75c0.51-3.38,3.66-5.77,7.04-5.32c3.37,0.45,5.69,3.55,5.18,6.94c-0.04,0.25-0.12,0.48-0.18,0.72
											c2.42-0.08,4.84-0.4,7.21-0.95c-0.1-0.2-0.22-0.38-0.31-0.59c-1.24-3.15,0.33-6.77,3.51-8.08c3.18-1.31,6.76,0.19,8,3.35
											c0.08,0.22,0.12,0.44,0.18,0.66c2.05-1.26,4-2.73,5.82-4.4c-0.18-0.11-0.36-0.2-0.53-0.33c-2.66-2.08-3.09-5.96-0.96-8.67
											c2.13-2.71,6.02-3.22,8.68-1.14C174.8,164.35,174.94,164.52,175.1,164.67z M162.17,162.23
											c-8.68,11.04-24.52,13.12-35.37,4.65c-10.85-8.47-12.61-24.28-3.93-35.32c8.68-11.04,24.52-13.12,35.37-4.65
											C169.1,135.38,170.85,151.2,162.17,162.23z"/>
									</g>
									<path class="st3" d="M124.94,124.69c-12.45,9.94-14.69,28.01-5,40.26c9.69,12.26,27.69,14.14,40.13,4.19
										c12.45-9.94,14.69-28.01,5.01-40.26C155.39,116.63,137.39,114.75,124.94,124.69z M157.67,134.8
										c6.51,8.23,5,20.37-3.36,27.05c-8.36,6.68-20.46,5.42-26.96-2.82c-6.51-8.23-5-20.37,3.36-27.05
										C139.07,125.31,151.16,126.57,157.67,134.8z"/>
								</g>
							</g>
						</g>
					</g>
				</g>
			</g>
			<path class="st6" d="M122.28,134.71c-4.51,5.38-4.37,13.94-1.96,21.2"/>
			<path class="st6" d="M122.63,158.84c0.94,1.61,2.04,3.13,3.29,4.52"/>
			<path class="st6" d="M161.63,139.19c2.56,7.11,1.26,15.49-3.34,21.49"/>
			<path class="st6" d="M72.03,97.67c-3.71,3.31-6.14,8.02-6.67,12.96c-0.54,4.94,0.82,10.06,3.74,14.09"/>
			<path class="st6" d="M89.17,131.04c1.98-0.8,3.84-1.91,5.49-3.28"/>
			<path class="st6" d="M97.98,124.65c2.8-4,4.38-8.84,4.48-13.73"/>
			<path class="st6" d="M102.01,108.66c-0.06-1.43-0.58-2.84-1.47-3.97"/>
			<path class="st6" d="M64.76,105.52c-0.99,2.1-1.4,4.48-1.16,6.79"/>
		</g>
		<g>
			<g>
				<g>
					<g>
						<g>
							<g>
								<path class="st3" d="M451.25,230.88c-0.49-1.86-1.14-3.65-1.95-5.33c-0.12,0.11-0.24,0.24-0.38,0.34
									c-2.14,1.57-5.11,1.08-6.65-1.1c-1.54-2.18-1.06-5.22,1.08-6.79c0.15-0.11,0.31-0.19,0.47-0.28
									c-1.32-1.35-2.76-2.57-4.31-3.64c-0.05,0.17-0.09,0.35-0.17,0.52c-1.08,2.45-3.9,3.54-6.3,2.44
									c-2.4-1.1-3.47-3.98-2.39-6.43c0.08-0.19,0.2-0.36,0.3-0.54c-1.8-0.5-3.66-0.83-5.56-0.96c0.04,0.2,0.1,0.39,0.12,0.6
									c0.27,2.67-1.64,5.06-4.26,5.33c-2.62,0.27-4.96-1.68-5.22-4.35c-0.02-0.23-0.01-0.46,0-0.69c-1.87,0.5-3.65,1.18-5.34,2.02
									c0.16,0.17,0.31,0.33,0.45,0.52c1.54,2.18,1.06,5.22-1.08,6.79c-2.14,1.57-5.11,1.08-6.65-1.1
									c-0.15-0.21-0.26-0.43-0.37-0.65c-1.36,1.38-2.59,2.89-3.66,4.51c0.23,0.07,0.46,0.13,0.69,0.23
									c2.4,1.1,3.47,3.98,2.39,6.43c-1.08,2.45-3.9,3.54-6.3,2.44c-0.24-0.11-0.46-0.25-0.68-0.4c-0.5,1.87-0.82,3.81-0.94,5.8
									c0.24-0.06,0.48-0.13,0.74-0.15c2.62-0.27,4.96,1.68,5.22,4.35c0.27,2.67-1.64,5.06-4.26,5.33c-0.27,0.03-0.53,0.02-0.79,0
									c0.5,1.92,1.19,3.76,2.03,5.5c0.18-0.18,0.36-0.36,0.56-0.51c2.14-1.57,5.11-1.08,6.65,1.1c1.54,2.18,1.06,5.22-1.08,6.79
									c-0.21,0.15-0.43,0.27-0.66,0.39c1.36,1.38,2.85,2.62,4.44,3.7c0.06-0.23,0.13-0.46,0.22-0.69c1.08-2.45,3.9-3.54,6.3-2.44
									c2.4,1.1,3.47,3.98,2.39,6.43c-0.1,0.22-0.23,0.42-0.35,0.62c1.82,0.49,3.7,0.8,5.62,0.92c-0.05-0.21-0.11-0.42-0.13-0.64
									c-0.27-2.67,1.64-5.06,4.26-5.33c2.62-0.27,4.96,1.68,5.22,4.35c0.02,0.22,0.01,0.43,0,0.64c1.84-0.51,3.61-1.2,5.28-2.04
									c-0.13-0.14-0.27-0.28-0.38-0.44c-1.54-2.18-1.06-5.22,1.08-6.79c2.14-1.57,5.11-1.08,6.65,1.1
									c0.11,0.16,0.19,0.33,0.28,0.5c1.32-1.36,2.5-2.84,3.54-4.43c-0.16-0.05-0.33-0.09-0.49-0.17c-2.4-1.1-3.47-3.98-2.39-6.43
									c1.08-2.45,3.9-3.54,6.3-2.44c0.16,0.08,0.31,0.18,0.46,0.27c0.47-1.82,0.78-3.69,0.9-5.62c-0.16,0.03-0.31,0.08-0.48,0.1
									c-2.62,0.27-4.96-1.68-5.22-4.35c-0.27-2.67,1.64-5.06,4.26-5.33C450.9,230.86,451.07,230.87,451.25,230.88z M442.67,236.49
									c1.08,10.89-6.69,20.62-17.37,21.72c-10.67,1.1-20.2-6.83-21.28-17.73c-1.08-10.89,6.69-20.61,17.37-21.72
									C432.06,217.66,441.59,225.59,442.67,236.49z"/>
							</g>
							<path class="st3" d="M401.47,235.5c-1.62,12.31,6.87,23.67,18.93,25.33c12.06,1.66,23.19-7.01,24.82-19.32
								c1.62-12.31-6.87-23.67-18.93-25.33C414.23,214.52,403.09,223.19,401.47,235.5z M425.32,223.5
								c8.1,1.11,13.81,8.75,12.72,17.02c-1.09,8.27-8.57,14.09-16.67,12.98c-8.1-1.11-13.81-8.75-12.72-17.02
								C409.74,228.21,417.22,222.39,425.32,223.5z"/>
						</g>
					</g>
				</g>
			</g>
			<path class="st8" d="M420.71,218.38c-6.15,1.69-11.52,6.02-14.48,11.67"/>
			<path class="st8" d="M404.97,233.4c-0.59,2.39-0.68,4.9-0.26,7.33"/>
			<path class="st8" d="M427.65,257.31c4.69-1,8.95-3.9,11.6-7.89c2.65-3.99,3.67-9.04,2.77-13.75"/>
		</g>
		<g>
			<g>
				<path class="st9" d="M280.14,60.46c-1.24-2.56-4.33-3.48-6.93-2.71c-2.48,0.73-4.59,3.01-4.61,5.69c0,0.04,0.01,0.09,0.01,0.13
					c-0.01,0.05-0.02,0.1-0.03,0.15c-0.46,2.82,1.55,5.22,4.08,6.17c2.26,0.85,5.21,0.34,6.76-1.6
					C281.1,66.15,281.31,62.88,280.14,60.46z"/>
			</g>
			<ellipse class="st6" cx="274.98" cy="63.93" rx="35.31" ry="10.18"/>
			<path class="st6" d="M295.68,35.32c4.55,3.3-1.03,18.77-12.46,34.57c-11.44,15.8-24.4,23.76-28.95,20.47
				c-4.55-3.3,1.03-16.61,12.46-32.4C278.17,42.16,291.13,32.03,295.68,35.32z"/>
			<path class="st6" d="M295.15,90.74c-4.61,3.21-17.39-4.99-28.53-21c-11.14-16.01-16.43-31.59-11.82-34.8
				c4.61-3.21,17.39,7.16,28.53,23.17C294.47,74.12,299.76,87.53,295.15,90.74z"/>
			<path class="st6" d="M271.55,60.04c-0.43,0.48-0.73,1.06-0.96,1.67c-0.46,1.25-0.55,2.65-0.11,3.9c0.44,1.25,1.45,2.33,2.72,2.7"
				/>
		</g>
		<g>
			<path class="st10" d="M429.87,186.84h-1.7c-8.04,0-15-5.59-16.74-13.44l0,0h35.19l0,0C444.87,181.25,437.91,186.84,429.87,186.84
				z"/>
			<path class="st7" d="M449.52,175.77c7.04-17.17,11.52-41.63,11.52-64.34c0-40.61-32.02-58.79-32.02-58.79
				s-32.02,18.18-32.02,58.79c0,22.71,4.48,47.17,11.53,64.34H449.52z"/>
			<path class="st11" d="M402.39,156.26c-6.02,3.18-11.09,8.67-12.36,15.35c-0.65,3.45-0.28,7.01,0.1,10.5
				c0.49,4.49,0.97,8.99,1.46,13.48c0.07,0.69,0.32,1.56,1.01,1.62c0.45,0.04,0.83-0.32,1.12-0.66c3.6-4.26,3.86-10.54,7.23-14.98
				c2-2.64,4.88-4.36,7.93-5.75C408.06,168.98,405.43,162.42,402.39,156.26z"/>
			<path class="st11" d="M455.72,156.26c6.02,3.18,11.09,8.67,12.36,15.35c0.65,3.45,0.28,7.01-0.1,10.5
				c-0.49,4.49-0.97,8.99-1.46,13.48c-0.07,0.69-0.32,1.56-1.01,1.62c-0.45,0.04-0.83-0.32-1.12-0.66
				c-3.6-4.26-3.86-10.54-7.23-14.98c-2-2.64-4.88-4.36-7.93-5.75C450.05,168.98,452.69,162.42,455.72,156.26z"/>
			<path class="st11" d="M428.3,198.61L428.3,198.61c-1.06,0-1.17-0.83-1.32-1.87c-2.73-18.79-1.93-26.71-0.75-39.07
				c0.1-1.06,1-1.87,2.07-1.87l0,0c1.07,0,1.97,0.81,2.07,1.87c1.18,12.44,1.59,21.85-0.74,39.07
				C429.48,197.79,429.36,198.61,428.3,198.61z"/>
			<g>
				<defs>
					<path id="SVGID_1_" d="M449.52,175.77c7.04-17.17,11.52-41.63,11.52-64.34c0-40.61-32.02-58.79-32.02-58.79
						s-32.02,18.18-32.02,58.79c0,22.71,4.48,47.17,11.53,64.34H449.52z"/>
				</defs>
				<clipPath id="SVGID_2_">
					<use xlink:href="#SVGID_1_"  style="overflow:visible;"/>
				</clipPath>
				<path class="st12" d="M449.84,56.37c-4.71,5.27-11.49,8.63-18.53,9.21c-7.04,0.58-14.27-1.65-19.78-6.08l16.92-14.15
					L449.84,56.37z"/>
			</g>
			<path class="st8" d="M397.66,132.88c13.49,3.81,42.9,4.5,62.62,0"/>
			<path class="st8" d="M397.66,104.83c13.64,4.25,43.37,5.03,63.31,0"/>
			
				<ellipse transform="matrix(0.2312 -0.9729 0.9729 0.2312 226.3167 499.1792)" class="st11" cx="429.02" cy="106.39" rx="14.83" ry="14.83"/>
			<circle class="st13" cx="429.02" cy="106.39" r="9.29"/>
			<path class="st8" d="M400.3,111.3c-0.06,5.8,0.2,11.6,0.76,17.38"/>
			<path class="st8" d="M402.07,137.24c0.54,3.79,1.21,7.56,2.03,11.29"/>
			<path class="st8" d="M402.89,124.79c0.19,2.24,0.25,4.5,0.18,6.75"/>
			<path class="st8" d="M402.16,97.43c1.33-9.71,6.52-18.39,11.6-26.77"/>
			<path class="st8" d="M450.95,145.94c-0.39,3.55-0.77,7.09-1.16,10.64"/>
			<path class="st8" d="M453.15,146.59c-0.07,1.84-0.33,3.67-0.78,5.45"/>
			<path class="st8" d="M442.74,178.18c-0.3,1.08-2.09,3.17-3.91,4.38"/>
		</g>
		<path class="st13" d="M284.69,176.23c-0.85-0.5-1.91-0.6-2.84-0.28c-0.93,0.32-1.7,1.06-2.06,1.98"/>
		<g>
			<g>
				<g>
					<path class="st9" d="M357.19,335.79c2.34-10.34,3.23-20.99,4.66-31.53c3.99-29.47,0.88-74.76-38.95-77.59
						c-13.71-0.97-27.65,6.81-34.02,18.99c-6.47,12.37-5.13,27.14-5.46,41.1c-0.37,15.43-3.08,31.06-10.27,44.71
						c-0.8,1.52-1.64,2.95-2.52,4.32H357.19z"/>
					<path class="st13" d="M226.36,335.11c0.02,0,0.05,0,0.07,0c2.85,0.03,5.75,0.06,8.45-0.85c5.4-1.81,10.19-6.33,14.07-10.33
						c4.67-4.82,9.34-9.46,6.09-16.19c-0.54-1.12-1.12-2.29-2.15-3c-0.81-0.56-1.8-0.77-2.77-0.94c-2.84-0.49-5.73-0.73-8.61-0.7
						c-9.31,0.09-12.09,7.42-17.74,13.43c-3.65,3.89-10,8.64-15.68,8.12c-2.44-0.22-4.74-1.15-7.1-1.8
						c-3.49-0.96-7.2-1.32-10.74-0.56c-3.57,0.76-17.64,9.15-8.32,12.24c2.67,0.88,6.01,0.15,8.78,0.18
						c3.96,0.05,7.92,0.09,11.88,0.14C210.52,334.93,218.44,335.02,226.36,335.11z"/>
					<path class="st7" d="M247.34,317.7c-0.09,2.75-2.58,17.05-1.27,19.46c0.19,0.35,0.4,0.64,0.61,0.91h20.95
						c5.16-0.68,10.39-1.12,15.12-0.22c0.33,0.06,0.65,0.14,0.97,0.22h50.92c1.4-15.88-0.73-30.29-6.53-45.13
						c-4-10.24-5.52-21.27-6.96-32.11c-1.35-10.13-3.1-23.2-14.7-24.88c-14.1-2.04-22.5-1.21-34.75,1.23
						c-11.36,2.26-21.4,6.03-28.48,15.72c-7.26,9.94-10.69,22.09-13.61,34.05c-0.13,0.55-0.26,1.14-0.05,1.67
						c0.31,0.76,1.22,1.07,2.02,1.26c5.21,1.26,10.61,1.74,15.96,1.4C243.49,303.02,247.75,305.26,247.34,317.7z"/>
				</g>
				<path d="M349.57,271.35c-0.05,0.08-0.1,0.15-0.16,0.23c-3.36,4.8-8.46,8.8-12.71,12.8c-4.41,4.15-10.33,7.31-16.04,9.27
					c-2.9,1-6.65,1.49-8.56-0.91c-2.1-2.64-0.27-6.52,1.81-9.18c4.59-5.87,10.37-10.8,16.84-14.48c3.29-1.87,6.62-3.73,10.21-4.97
					c2.85-0.98,7.99-2.79,9.79,0.73C351.82,266.9,350.88,269.4,349.57,271.35z"/>
				<path class="st13" d="M305.67,255.5c3.84-5.14,12.1-7.24,18.54-5.75c9.01,2.08,16.49,8.72,21.33,16.6
					c4.84,7.88,7.34,16.97,9.24,26.02c1.05,4.97,1.87,10.4-0.45,14.91c-4.36,8.46-14.91,3.91-20.26-0.75
					c-3.04-2.64-5.73-5.66-8.33-8.73c-6.42-7.6-12.33-15.63-17.66-24.03c-1.77-2.78-3.5-5.67-4.22-8.88
					C303.01,261.11,303.84,257.96,305.67,255.5z"/>
				<path class="st7" d="M300.84,235.2c9.1,0.19,20.48,0.78,27.26,6.81c4.1,3.65,7.23,8.34,11.54,11.76
					c1.12,0.89,10.71,9.92,10.24,10.18c-6.15,3.56-11.91,6.83-17.39,11.58c-6,5.2-11.24,10.21-18.14,14.24
					c-0.34,0.2-0.69,0.4-1.08,0.42c-0.99,0.06-1.64-1-2.06-1.9c-3.5-7.55-6.75-15.23-10.86-22.48"/>
				<path class="st13" d="M330.23,293.92c-12.46,4.4-21.79,14.49-31.82,22.91c-4.73,3.97-9.84,8.11-15.97,8.8
					c-5.33,0.6-10.54-1.51-15.8-2.56c-7.14-1.42-16.88,0.68-19.35,8.5c-0.09,0.3-0.18,0.61-0.11,0.92c0.08,0.34,0.34,0.61,0.6,0.84
					c3.22,2.89,8.12,2.77,12.17,2.4c12.47-1.14,25.06-1,37.5,0.41c14.62,1.66,32.94-5.73,44.81-14.43
					c6.4-4.69,11.79-10.65,13.65-18.37"/>
				<path class="st13" d="M216.02,333.46c-1.58-3.58-4.66-6.23-7.65-8.76"/>
				<rect x="175.95" y="330.8" class="st14" width="99.62" height="7.27"/>
				<g>
					<path class="st13" d="M272.54,231.24c2.03,2.45,0.82,6.37-0.27,8.98c-0.2,0.48,3.41,2.16,3.81,2.31
						c1.49,0.58,3.08,0.89,4.67,0.99c3.27,0.19,6.7-0.19,9.8-1.28c2.01-0.71,3.92-1.84,5.21-3.53c0.16-0.21,0.32-0.44,0.33-0.7
						c0.06-0.82-1.09-1.32-1.45-1.96c-0.39-0.72-0.62-2.19-0.81-3.03c-0.5-2.23-0.28-4.55-0.34-6.82c-0.08-3.6,0.41-7.22,0.51-10.82
						c0.2-7.37-0.93-15.12-7.41-19.65c-0.07-0.05-0.13-0.09-0.2-0.14c-2.36-1.61-4.9-3.07-7.61-3.98c-2.89-0.96-4.78-1.07-7.58-0.02
						c-2.57,0.96-4.65,0.73-6.89,2.61c-3.8,3.18-4.81,7.67-4.61,12.42c0.25,5.96,2.89,20.89,7.94,22.69
						C270.4,230.29,271.39,229.85,272.54,231.24z"/>
					<path d="M264.49,203.1c0.78-0.1,1.56-0.26,2.31-0.42c4.37-0.93,5.48,3.72,8.87,1.9c1.23-0.66,2.66-1.54,3.9-0.91
						c1.83,0.92,0.81,2.82,1.19,4.28c0.51,2.02,1.89,4.41,3.08,6.1c1.66,2.35,3.57,5.1,6.04,6.69c3.72,2.4,6.44-1.37,6.18-5.01
						c-0.12-1.66-0.84-3.35-0.29-4.92c0.45-1.3,1.66-2.15,2.51-3.23c2.02-2.56,1.75-6.64-0.59-8.91c-0.76-0.74-1.73-1.34-2.17-2.3
						c-0.8-1.73,0.44-3.73,0.33-5.63c-0.05-0.94-1.47-3.14-2.07-3.87c-1.02-1.24-2.61-2.1-4.25-1.81c-3.79,0.66-4.25-1.42-6.32-3.98
						c-1.56-1.93-4.58-2.05-6.83-1.01c-1.49,0.69-2.83,1.81-4.45,2.08c-2.26,0.37-4.44-1-6.72-1.16c-2.63-0.18-5.14,1.28-6.99,3.16
						c-1.34,1.36-2.45,2.99-2.97,4.83c-0.52,1.84-0.4,3.89,0.55,5.55c0.35,0.6,0.8,1.16,0.95,1.83c0.13,0.58,0.01,1.18,0.01,1.77
						C256.78,201.97,261.36,203.5,264.49,203.1z"/>
					<path class="st13" d="M278.9,210.92c1.16-2.66,3.34-4.63,6.44-3.76c2.83,0.8,4.59,4.11,3.75,6.92c-0.69,2.3-2.74,3.5-5.03,3.73
						"/>
					<g>
						<defs>
							<path id="SVGID_3_" d="M286.4,195.58c16.62,11.3-1.27,36.12,12.66,44.52c-8.54,2.36-17.73,2.32-26.25-0.12
								c0.36,0.1,0.65-5.5,0.63-5.88c-0.26-3.83-2.24-3.69-5.44-4.26c-1.92-0.34-3.43-3.37-4.41-5.05
								c-3.07-5.26-3.64-12.21-3.89-18.18c-0.2-4.75,0.81-9.24,4.61-12.42c2.24-1.87,4.32-1.65,6.89-2.61
								c2.8-1.05,4.7-0.94,7.58,0.02C281.5,192.51,284.04,193.97,286.4,195.58z"/>
						</defs>
						<clipPath id="SVGID_4_">
							<use xlink:href="#SVGID_3_"  style="overflow:visible;"/>
						</clipPath>
						<g class="st15">
							<path d="M271.19,230.41c-0.02-0.09-0.04-0.19-0.06-0.28c2.79-0.08,5.79-0.53,8.18-1.77c-1.2,1.97-4.62,4.83-7.23,6.94
								C272.09,234.69,272.09,231.95,271.19,230.41z"/>
						</g>
					</g>
				</g>
				<g>
					<g>
						<path class="st16" d="M269.76,319.13H157.18c-1.28,0-2.37-0.94-2.55-2.21l-9.56-66.22c-0.22-1.55,0.98-2.94,2.55-2.94H260.2
							c1.28,0,2.37,0.94,2.55,2.21l9.56,66.22C272.53,317.74,271.32,319.13,269.76,319.13z"/>
						<path d="M233.54,334.55h-43.77l0,0c0-3.39,2.74-6.13,6.13-6.13h31.51C230.8,328.42,233.54,331.17,233.54,334.55L233.54,334.55
							z"/>
						<path d="M217.79,305.81h-22.03c-1.28,0-2.36-0.94-2.55-2.2l-0.79-5.49c-0.22-1.55,0.98-2.94,2.55-2.94H217
							c1.28,0,2.36,0.94,2.55,2.21l0.79,5.49C220.56,304.42,219.36,305.81,217.79,305.81z"/>
						<path class="st17" d="M212.68,331.67c-2.58-4.66-5.17-9.37-6.66-14.48c-1.49-5.11-1.78-10.74,0.21-15.68"/>
					</g>
					<g>
						<line class="st18" x1="196.68" y1="287.9" x2="194.42" y2="272.26"/>
						<line class="st18" x1="201.05" y1="287.9" x2="198.79" y2="272.26"/>
						<line class="st18" x1="205.42" y1="287.9" x2="203.17" y2="272.26"/>
						<line class="st18" x1="209.8" y1="287.9" x2="207.54" y2="272.26"/>
						<line class="st18" x1="214.17" y1="287.9" x2="211.91" y2="272.26"/>
					</g>
				</g>
				<rect x="146.05" y="334.63" class="st3" width="242.17" height="4.48"/>
				<path class="st13" d="M264.36,221.6c2.16,1.09,4.93,0.82,6.84-0.65"/>
			</g>
			<g>
				<g>
					<path class="st16" d="M358.3,334.46h-69.48v-40.24c0-2.28,1.85-4.13,4.13-4.13h61.21c2.28,0,4.13,1.85,4.13,4.13V334.46z"/>
					<path class="st3" d="M328.81,312.94c0,2.53-2.05,4.58-4.58,4.58s-4.58-2.05-4.58-4.58s2.05-4.58,4.58-4.58
						S328.81,310.41,328.81,312.94z"/>
				</g>
				<g>
					<line class="st16" x1="291.01" y1="297.83" x2="291.01" y2="317.68"/>
					<line class="st16" x1="290.87" y1="320.5" x2="290.87" y2="324.44"/>
					<line class="st16" x1="293.12" y1="306.98" x2="293.12" y2="316.28"/>
					<line class="st16" x1="337.47" y1="295.72" x2="348.31" y2="295.72"/>
					<line class="st16" x1="342.25" y1="294.03" x2="354.23" y2="294.03"/>
					<line class="st16" x1="350.84" y1="296" x2="353.24" y2="296"/>
				</g>
			</g>
		</g>
		<g>
			<path class="st3" d="M455.48,436.92c0,3.06-8.7,5.54-19.43,5.54c-10.73,0-19.43-2.48-19.43-5.54"/>
			<path class="st3" d="M416.86,371.97V437h38.62v-65.04C453.53,364.34,419.08,366.15,416.86,371.97z"/>
			<path class="st10" d="M452.86,393.39h-33.4v39.81h0.04c0.39,2.73,7.7,4.91,16.66,4.91c8.96,0,16.27-2.18,16.66-4.91h0.04V393.39z
				"/>
			<g>
				<path class="st6" d="M435.45,295.6c-0.04,35.61-0.04,67.15,0,102.24"/>
				<path class="st7" d="M442.17,289.86c0,5.92-6.73,10.72-6.73,10.72s-6.72-4.8-6.72-10.72c0-5.92,6.72-10.72,6.72-10.72
					S442.17,283.94,442.17,289.86z"/>
				<path class="st7" d="M429.6,298.66c4.95,3.24,5.29,11.5,5.29,11.5s-7.7,3-12.65-0.24c-4.95-3.24-5.29-11.5-5.29-11.5
					S424.65,295.42,429.6,298.66z"/>
				<path class="st7" d="M429.6,315.05c4.95,3.24,5.29,11.5,5.29,11.5s-7.7,3-12.65-0.24c-4.95-3.24-5.29-11.5-5.29-11.5
					S424.65,311.81,429.6,315.05z"/>
				<path class="st7" d="M429.6,331.44c4.95,3.24,5.29,11.5,5.29,11.5s-7.7,3-12.65-0.24c-4.95-3.24-5.29-11.5-5.29-11.5
					S424.65,328.2,429.6,331.44z"/>
				<path class="st7" d="M429.6,347.84c4.95,3.24,5.29,11.5,5.29,11.5s-7.7,3-12.65-0.24c-4.95-3.24-5.29-11.5-5.29-11.5
					S424.65,344.59,429.6,347.84z"/>
				<path class="st7" d="M441.17,298.66c-4.95,3.24-5.29,11.5-5.29,11.5s7.7,3,12.65-0.24c4.95-3.24,5.29-11.5,5.29-11.5
					S446.12,295.42,441.17,298.66z"/>
				<path class="st7" d="M441.17,315.05c-4.95,3.24-5.29,11.5-5.29,11.5s7.7,3,12.65-0.24c4.95-3.24,5.29-11.5,5.29-11.5
					S446.12,311.81,441.17,315.05z"/>
				<path class="st7" d="M441.17,331.44c-4.95,3.24-5.29,11.5-5.29,11.5s7.7,3,12.65-0.24c4.95-3.24,5.29-11.5,5.29-11.5
					S446.12,328.2,441.17,331.44z"/>
				<path class="st7" d="M441.17,347.84c-4.95,3.24-5.29,11.5-5.29,11.5s7.7,3,12.65-0.24c4.95-3.24,5.29-11.5,5.29-11.5
					S446.12,344.59,441.17,347.84z"/>
				<path class="st6" d="M436.01,359.2c2.67-2.01,5.33-4.02,8-6.04"/>
				<path class="st6" d="M436.21,342.75c2.95-2.07,5.86-4.2,8.72-6.4"/>
				<path class="st6" d="M436.34,326.39c2.35-1.83,4.69-3.66,7.04-5.49"/>
				<path class="st6" d="M436.24,309.96c2.48-1.81,4.95-3.62,7.43-5.42"/>
				<path class="st6" d="M434.68,309.93c-2.67-1.55-5.23-3.27-7.67-5.15"/>
				<path class="st6" d="M435.3,299.84c-0.08-2.95-0.03-5.91,0.13-8.86"/>
				<path class="st6" d="M434.55,342.73c-2.34-1.84-4.67-3.68-7.01-5.52"/>
				<path class="st6" d="M434.69,326.25c-2.73-1.99-5.54-3.86-8.41-5.63"/>
				<path class="st6" d="M434.83,358.95c-2.21-1.74-4.5-3.37-6.87-4.89"/>
			</g>
			<g>
				<path d="M426.46,403.69c0,0.61-0.49,1.1-1.1,1.1c-0.61,0-1.1-0.49-1.1-1.1c0-0.61,0.49-1.1,1.1-1.1
					C425.97,402.59,426.46,403.08,426.46,403.69z"/>
				<path d="M427.28,421.94c0,0.61-0.49,1.1-1.1,1.1c-0.61,0-1.1-0.49-1.1-1.1c0-0.61,0.49-1.1,1.1-1.1
					C426.79,420.84,427.28,421.33,427.28,421.94z"/>
				<path d="M438.68,402.67c0,0.61-0.49,1.1-1.1,1.1c-0.61,0-1.1-0.49-1.1-1.1c0-0.61,0.49-1.1,1.1-1.1
					C438.19,401.57,438.68,402.07,438.68,402.67z"/>
				<path d="M447.64,408.38c0,0.61-0.49,1.1-1.1,1.1c-0.61,0-1.1-0.49-1.1-1.1c0-0.61,0.49-1.1,1.1-1.1
					C447.15,407.28,447.64,407.77,447.64,408.38z"/>
				<path d="M437.26,426.7c0,0.61-0.49,1.1-1.1,1.1c-0.61,0-1.1-0.49-1.1-1.1c0-0.61,0.49-1.1,1.1-1.1
					C436.76,425.61,437.26,426.1,437.26,426.7z"/>
				<path d="M441.94,416.73c0,0.61-0.49,1.1-1.1,1.1c-0.61,0-1.1-0.49-1.1-1.1c0-0.61,0.49-1.1,1.1-1.1
					C441.45,415.63,441.94,416.12,441.94,416.73z"/>
				<path d="M448.5,398.98c0,0.61-0.49,1.1-1.1,1.1c-0.61,0-1.1-0.49-1.1-1.1c0-0.61,0.49-1.1,1.1-1.1
					C448,397.88,448.5,398.37,448.5,398.98z"/>
				<path d="M449.27,425.08c0,0.61-0.49,1.1-1.1,1.1c-0.61,0-1.1-0.49-1.1-1.1c0-0.61,0.49-1.1,1.1-1.1
					C448.78,423.98,449.27,424.47,449.27,425.08z"/>
				<path d="M433.59,412.04c0,0.61-0.49,1.1-1.1,1.1c-0.61,0-1.1-0.49-1.1-1.1c0-0.61,0.49-1.1,1.1-1.1
					C433.1,410.94,433.59,411.43,433.59,412.04z"/>
			</g>
			<ellipse class="st6" cx="436.18" cy="372.24" rx="19.43" ry="5.54"/>
			<path class="st6" d="M421.24,412.86c0,3.31,0,6.61,0,9.92"/>
			<path class="st6" d="M421.43,426.21c0,0.78,0,1.56,0,2.34"/>
			<path class="st6" d="M419.26,378.41c0,2.34,0,4.69,0,7.03"/>
			<path class="st6" d="M448.3,383.1c0,1.68,0,3.37,0,5.05"/>
			<path class="st6" d="M450.28,379.86c0.07,2.11,0.01,4.22-0.18,6.31"/>
		</g>
		<g>
			<g>
				<line class="st6" x1="320.34" y1="426.2" x2="343.92" y2="420.03"/>
				<path class="st7" d="M315.47,430.86c-2.52-2.11-2.86-5.86-0.75-8.39c2.11-2.52,5.86-2.86,8.39-0.75
					c2.52,2.11,2.86,5.86,0.75,8.39C321.75,432.63,318,432.97,315.47,430.86z"/>
				<line class="st6" x1="330.09" y1="400.78" x2="350.93" y2="415.91"/>
				<line class="st6" x1="365.2" y1="392.69" x2="355.6" y2="415.09"/>
				<line class="st6" x1="358.18" y1="421.04" x2="373.93" y2="428.94"/>
				
					<ellipse transform="matrix(0.9395 -0.3426 0.3426 0.9395 -121.7231 146.1421)" class="st9" cx="352.74" cy="417.56" rx="10.1" ry="10.1"/>
				<path class="st7" d="M364.51,385.98c3.21-0.7,6.39,1.34,7.09,4.55c0.7,3.21-1.34,6.39-4.55,7.09c-3.21,0.7-6.39-1.34-7.09-4.55
					C359.25,389.85,361.29,386.68,364.51,385.98z"/>
				<path class="st7" d="M325.85,394.99c2.72-1.46,6.11-0.43,7.57,2.3c1.46,2.72,0.43,6.11-2.3,7.57c-2.72,1.46-6.11,0.43-7.57-2.3
					C322.1,399.83,323.13,396.44,325.85,394.99z"/>
				<path class="st7" d="M372.48,424.65c2.9-1.55,6.51-0.46,8.06,2.44c1.55,2.9,0.46,6.51-2.44,8.06c-2.9,1.55-6.51,0.46-8.06-2.44
					C368.49,429.81,369.58,426.2,372.48,424.65z"/>
			</g>
			<path class="st6" d="M346.87,412.47c-1.09,1.41-1.68,3.22-1.62,5c0.06,1.79,0.76,3.55,1.94,4.89"/>
			<path class="st6" d="M348.55,423.44c0.48,0.48,1.15,0.76,1.83,0.77"/>
			<path class="st6" d="M362.15,390.08c-0.49,1.43,0.06,3.14,1.28,4.03"/>
			<path class="st6" d="M365.3,395.26c0.8,0.28,1.73,0.15,2.43-0.32"/>
			<path class="st6" d="M369.35,393.83c0.48-0.6,0.72-1.39,0.64-2.16"/>
			<path class="st6" d="M324.67,398.99c0.15,1,0.43,1.98,0.84,2.91"/>
			<path class="st6" d="M326.72,403.24c0.92,0.38,2,0.36,2.91-0.05"/>
			<path class="st6" d="M315.05,426.58c0.3,1.21,1,2.36,2.04,3.04c1.05,0.68,2.46,0.85,3.57,0.27"/>
			<path class="st6" d="M346.74,416.26c-0.13,1.32,0.23,2.68,1.01,3.76"/>
			<path class="st6" d="M375.26,425.01c-2.06,0.5-3.67,2.46-3.77,4.58"/>
			<path class="st6" d="M371.62,431.08c-0.08,0.97,0.4,1.97,1.21,2.51"/>
		</g>
		<g>
			<path d="M86.45,421.38l0.01,2.05c0.01,1.37-1.1,2.49-2.47,2.5l-24.28,0.16c-1.37,0.01-2.49-1.1-2.5-2.47l-0.01-2.05
				c-0.01-1.37,1.1-2.49,2.47-2.5l24.28-0.16C85.32,418.9,86.44,420.01,86.45,421.38z"/>
			<path d="M58.13,420.11l-2.02-0.36c-1.35-0.24-2.26-1.53-2.02-2.88l3.38-19.21c0.24-1.35,1.53-2.26,2.88-2.02l2.02,0.36
				c1.35,0.24,2.26,1.53,2.02,2.88l-3.38,19.21C60.77,419.45,59.48,420.35,58.13,420.11z"/>
			<g>
				<path d="M155.22,421.43l-0.78-1.89c-0.52-1.27,0.09-2.72,1.36-3.24l22.47-9.2c1.27-0.52,2.72,0.09,3.24,1.36l0.78,1.89
					c0.52,1.27-0.09,2.72-1.36,3.24l-22.47,9.2C157.19,423.31,155.74,422.7,155.22,421.43z"/>
				<path d="M180.45,412.58l1.76-1.04c1.18-0.7,2.71-0.31,3.41,0.87l8.73,14.76c0.7,1.18,0.31,2.71-0.87,3.41l-1.76,1.04
					c-1.18,0.7-2.71,0.31-3.41-0.87l-8.73-14.76C178.87,414.8,179.27,413.28,180.45,412.58z"/>
				<path d="M192.74,430.13c-3.92,2.25-5.26,7.26-3.01,11.17c1.67,2.91,4.86,4.39,8,4.05l-4.25-7.38l6.03-3.47l4.15,7.21
					c1.64-2.5,1.85-5.8,0.26-8.57C201.66,429.23,196.66,427.88,192.74,430.13z"/>
			</g>
			<g>
				<path class="st7" d="M159.81,380.45c0.2-1.33,0.3-2.7,0.3-4.08l0,0c0-15.34-12.43-27.77-27.77-27.77h-22.87
					c-15.34,0-27.77,12.43-27.77,27.77l0,0c0,1.39,0.11,2.75,0.3,4.08H159.81z"/>
				<path class="st7" d="M84.16,382.82c4.36,9.63,14.05,16.34,25.3,16.34h22.87c11.26,0,20.95-6.7,25.3-16.34H84.16z"/>
				<ellipse cx="101.53" cy="367" rx="7.76" ry="10.62"/>
				<ellipse cx="137.79" cy="367" rx="7.76" ry="10.62"/>
				<path class="st7" d="M140.45,449.36h-38.28c-9.77,0-17.69-7.92-17.69-17.69v-14.55c0-9.77,7.92-17.69,17.69-17.69h38.28
					c9.77,0,17.69,7.92,17.69,17.69v14.55C158.14,441.44,150.22,449.36,140.45,449.36z"/>
			</g>
			<path d="M60.88,396.35c4.44,0.82,8.71-2.12,9.53-6.56c0.61-3.3-0.85-6.5-3.47-8.26l-1.55,8.38l-6.84-1.26l1.51-8.18
				c-2.87,0.84-5.17,3.22-5.75,6.36C53.5,391.26,56.44,395.53,60.88,396.35z"/>
			<g>
				<defs>
					<path id="SVGID_5_" d="M140.45,449.36h-38.28c-9.77,0-17.69-7.92-17.69-17.69v-14.55c0-9.77,7.92-17.69,17.69-17.69h38.28
						c9.77,0,17.69,7.92,17.69,17.69v14.55C158.14,441.44,150.22,449.36,140.45,449.36z"/>
				</defs>
				<clipPath id="SVGID_6_">
					<use xlink:href="#SVGID_5_"  style="overflow:visible;"/>
				</clipPath>
				<path class="st19" d="M127.15,464.5h-13.99c-9.39,0-16.99-7.61-16.99-16.99v-17.5c0-9.39,7.61-16.99,16.99-16.99h13.99
					c9.39,0,16.99,7.61,16.99,16.99v17.5C144.14,456.89,136.53,464.5,127.15,464.5z"/>
			</g>
			<line class="st7" x1="96.23" y1="433.96" x2="143.62" y2="433.96"/>
			<line class="st7" x1="96.23" y1="437.44" x2="143.62" y2="437.44"/>
			<path d="M102.54,430.18c0,0.82-0.67,1.49-1.49,1.49c-0.82,0-1.49-0.67-1.49-1.49s0.67-1.49,1.49-1.49
				C101.88,428.7,102.54,429.36,102.54,430.18z"/>
			<path d="M140.71,430.18c0,0.82-0.67,1.49-1.49,1.49c-0.82,0-1.49-0.67-1.49-1.49s0.67-1.49,1.49-1.49
				C140.05,428.7,140.71,429.36,140.71,430.18z"/>
			<path class="st6" d="M140.45,449.36h-38.28c-9.77,0-17.69-7.92-17.69-17.69v-14.55c0-9.77,7.92-17.69,17.69-17.69h38.28
				c9.77,0,17.69,7.92,17.69,17.69v14.55C158.14,441.44,150.22,449.36,140.45,449.36z"/>
			<path class="st6" d="M87.59,416.77c-0.56,3.86-0.63,7.78-0.21,11.66"/>
			<path class="st6" d="M87.71,431.26c0.49,1.87,1.11,3.71,1.87,5.49"/>
			<path class="st6" d="M132.05,417.41c2.57,1.45,4.69,3.69,5.99,6.34"/>
			<path class="st6" d="M89.91,360.64c-3.26,4.19-5.05,9.51-4.97,14.82"/>
			<path class="st6" d="M137.34,395.49c4.05-1.13,7.85-3.13,11.07-5.83"/>
			<path class="st6" d="M150.32,388.08c0.68-0.76,1.37-1.53,2.05-2.29"/>
			<line class="st6" x1="111.55" y1="378.45" x2="120.18" y2="378.45"/>
			<line class="st6" x1="122.88" y1="378.45" x2="126.6" y2="378.45"/>
			<path class="st6" d="M156.81,378.28c0.42-2.19,0.55-4.43,0.39-6.65"/>
			<path class="st6" d="M155.46,424.25c-0.25,4.93-0.68,10.19-3.67,14.12"/>
			<path class="st6" d="M149.87,441.08c-0.62,1.02-1.34,1.97-2.17,2.83"/>
		</g>
		<g>
			<g>
				<path class="st10" d="M95.93,256.95c-1.53-2.77-3.06-5.54-4.59-8.32c-3.12-5.65-6.24-11.29-9.36-16.93
					c-0.08-0.14-0.17-0.26-0.28-0.37v-23.25H69.08v23.63c-3.66,6.47-7.29,12.96-10.93,19.44c-0.92,1.64-1.85,3.28-2.77,4.93
					c-0.76,1.36-2.12,3-2.53,4.49c-0.57,2.1,1.46,2.52,3.2,2.52c13.4-0.01,26.8-0.01,40.19-0.01
					C100.03,263.08,96.63,258.21,95.93,256.95z"/>
				<circle class="st20" cx="72.8" cy="256.34" r="2.06"/>
				<path class="st20" d="M76.28,246.47c0,0.86-0.7,1.55-1.55,1.55c-0.86,0-1.55-0.7-1.55-1.55c0-0.86,0.7-1.55,1.55-1.55
					C75.58,244.91,76.28,245.61,76.28,246.47z"/>
				<path class="st20" d="M78.85,221.99c0,0.86-0.7,1.55-1.55,1.55c-0.86,0-1.55-0.7-1.55-1.55c0-0.86,0.7-1.55,1.55-1.55
					C78.15,220.44,78.85,221.14,78.85,221.99z"/>
				<circle class="st20" cx="79.42" cy="238.36" r="2.44"/>
				<circle class="st20" cx="81.29" cy="252.72" r="1.97"/>
				<path class="st20" d="M75.6,233.11c0,0.9-0.73,1.62-1.62,1.62c-0.9,0-1.62-0.73-1.62-1.62c0-0.9,0.73-1.62,1.62-1.62
					C74.88,231.49,75.6,232.22,75.6,233.11z"/>
				<path class="st7" d="M67.41,240.58c0.01,0.01,0.03,0.02,0.04,0.02l1.45-2.42C68.4,238.99,67.9,239.79,67.41,240.58z"/>
				<path class="st7" d="M65.08,244.38c-2.53,4.15-5,8.34-7.4,12.56l7.48-12.51C65.13,244.41,65.1,244.4,65.08,244.38z"/>
				<path class="st7" d="M65.82,246.95c-1.37,2.25-2.74,4.5-4.11,6.75"/>
				<line class="st7" x1="69.92" y1="212.27" x2="80.85" y2="212.02"/>
			</g>
			<path d="M81.73,210.58H69.11c-0.91,0-1.65-0.74-1.65-1.65v-0.22c0-0.91,0.74-1.65,1.65-1.65h12.62c0.91,0,1.65,0.74,1.65,1.65
				v0.22C83.38,209.84,82.64,210.58,81.73,210.58z"/>
		</g>
		<g>
			<g>
				<path class="st3" d="M318.04,127.82L318.04,127.82c0.93-2.98,4.11-4.65,7.09-3.72l23.24,7.26c2.98,0.93,4.65,4.11,3.72,7.09l0,0
					c-0.93,2.98-4.11,4.65-7.09,3.72l-23.24-7.26C318.77,133.98,317.11,130.8,318.04,127.82z"/>
				<path class="st3" d="M307.52,167.57L307.52,167.57c-2.97-0.97-4.59-4.17-3.62-7.14l7.57-23.15c0.97-2.97,4.17-4.59,7.14-3.62
					l0,0c2.97,0.97,4.59,4.17,3.62,7.14l-7.57,23.15C313.69,166.92,310.5,168.54,307.52,167.57z"/>
				<path class="st3" d="M350.85,138.59c-1.23,5.96,1.89,12.11,7.44,14.62c5.54,2.51,11.67,0.91,15.36-3.24l-13.07-4.25l3.47-10.67
					l12.77,4.15c-0.74-4.76-4.05-8.95-8.95-10.54C360.47,126.26,352.48,130.75,350.85,138.59z"/>
			</g>
			<path class="st2" d="M322.86,131.94c-1.24-0.3-2-1.55-1.7-2.79c0.3-1.24,1.55-2,2.79-1.7c1.24,0.3,2,1.55,1.7,2.79
				C325.35,131.48,324.1,132.24,322.86,131.94z"/>
			<path class="st2" d="M316.4,141.11c-1.24-0.3-2-1.55-1.7-2.79c0.3-1.24,1.55-2,2.79-1.7c1.24,0.3,2,1.55,1.7,2.79
				C318.89,140.65,317.64,141.41,316.4,141.11z"/>
		</g>
		<g>
			<g>
				<g>
					<path class="st3" d="M224.37,440.58l-0.66-2.3c0.07-0.02,7.24-2.12,15.16-6.65c7.23-4.13,16.59-11.18,20.16-21.34
						c3.58-10.17,0.68-21.55-2.38-29.31c-3.35-8.48-7.6-14.56-7.64-14.62l1.96-1.38c0.18,0.26,4.46,6.38,7.91,15.12
						c4.61,11.67,5.44,22.38,2.42,30.98c-3.03,8.6-10.38,16.43-21.28,22.65C231.84,438.39,224.67,440.49,224.37,440.58z"/>
				</g>
				<g>
					<path class="st3" d="M232.88,443.57c-0.18-0.26-4.46-6.38-7.91-15.12c-4.61-11.67-5.44-22.38-2.42-30.98
						c3.03-8.6,10.38-16.43,21.28-22.65c8.16-4.66,15.33-6.75,15.63-6.84l0.66,2.3c-0.07,0.02-7.24,2.12-15.16,6.65
						c-7.23,4.13-16.59,11.18-20.16,21.34c-3.57,10.16-0.69,21.52,2.36,29.26c3.34,8.49,7.62,14.61,7.66,14.67L232.88,443.57z"/>
				</g>
				<g>
					
						<rect x="249.74" y="373.55" transform="matrix(0.6547 -0.7559 0.7559 0.6547 -207.1255 323.8624)" class="st3" width="2.39" height="30.19"/>
				</g>
				<g>
					
						<rect x="231.25" y="409.63" transform="matrix(0.6559 -0.7549 0.7549 0.6559 -239.3289 321.0455)" class="st3" width="2.39" height="26.76"/>
				</g>
				<g>
					
						<rect x="245.1" y="378.02" transform="matrix(0.6598 -0.7515 0.7515 0.6598 -214.5344 320.1502)" class="st3" width="2.39" height="37.97"/>
				</g>
				<g>
					
						<rect x="240" y="385.3" transform="matrix(0.6584 -0.7526 0.7526 0.6584 -222.5826 319.9398)" class="st3" width="2.39" height="39.8"/>
				</g>
				<g>
					
						<rect x="234.95" y="395.49" transform="matrix(0.666 -0.746 0.746 0.666 -229.6571 314.3045)" class="st3" width="2.39" height="36.23"/>
				</g>
			</g>
			<g>
				<path class="st3" d="M227.2,404.01c-0.93,2.65-3.83,4.04-6.48,3.11c-2.65-0.93-4.04-3.83-3.11-6.48
					c0.93-2.65,3.83-4.04,6.48-3.11C226.74,398.47,228.13,401.37,227.2,404.01z"/>
			</g>
			<g>
				<path class="st3" d="M237.11,386.07c-0.91,2.6-3.76,3.96-6.35,3.05c-2.6-0.91-3.96-3.76-3.05-6.35s3.76-3.96,6.35-3.05
					C236.66,380.63,238.03,383.47,237.11,386.07z"/>
			</g>
		</g>
		<g>
			<path class="st3" d="M298.77,385.95h0.1c0,3.65,2.96,6.62,6.62,6.62v0.1c-3.65,0-6.62,2.96-6.62,6.62h-0.1
				c0-3.65-2.96-6.62-6.62-6.62v-0.1C295.81,392.56,298.77,389.6,298.77,385.95z"/>
			<path class="st3" d="M287.72,368.91h0.1c0,3.42,2.77,6.19,6.19,6.19v0.1c-3.42,0-6.19,2.77-6.19,6.19h-0.1
				c0-3.42-2.77-6.19-6.19-6.19v-0.1C284.95,375.1,287.72,372.33,287.72,368.91z"/>
			<path class="st3" d="M306.59,368.54h0.09c0,3.23,2.62,5.85,5.85,5.85v0.09c-3.23,0-5.85,2.62-5.85,5.85h-0.09
				c0-3.23-2.62-5.85-5.85-5.85v-0.09C303.97,374.39,306.59,371.77,306.59,368.54z"/>
		</g>
		<path class="st3" d="M363.22,198.91L363.22,198.91c0,5.03,4.08,9.11,9.11,9.11l0,0c-5.03,0-9.11,4.08-9.11,9.11l0,0
			c0-5.03-4.08-9.11-9.11-9.11l0,0C359.14,208.03,363.22,203.95,363.22,198.91z"/>
		<path class="st3" d="M130.09,210.74L130.09,210.74c0,3.68,2.99,6.67,6.67,6.67l0,0c-3.68,0-6.67,2.99-6.67,6.67l0,0
			c0-3.68-2.99-6.67-6.67-6.67l0,0C127.11,217.41,130.09,214.42,130.09,210.74z"/>
	</g>
</g>
</svg>
