<?xml version="1.0" encoding="utf-8"?>
<!-- Generator: Adobe Illustrator 25.0.0, SVG Export Plug-In . SVG Version: 6.00 Build 0)  -->
<svg version="1.1" id="Layer_1" xmlns="http://www.w3.org/2000/svg" xmlns:xlink="http://www.w3.org/1999/xlink" x="0px" y="0px"
	 viewBox="0 0 2871 2000" style="enable-background:new 0 0 2871 2000;" xml:space="preserve">
<style type="text/css">
	.st0{display:none;fill:#FFFFFF;}
	.st1{fill:#F48C7F;}
	.st2{fill:#13375B;}
	.st3{fill:#F47458;}
	.st4{fill:#F79C8D;}
	.st5{fill:#86B1F2;}
	.st6{fill:#50BFA5;}
	.st7{fill:#355389;}
	.st8{fill:#F7A491;}
	.st9{opacity:0.5;fill:#F47458;}
	.st10{fill:#FFFFFF;}
	.st11{fill:#F7CC7F;}
	.st12{fill:#96D9C9;}
	.st13{fill:#B75742;}
	.st14{opacity:0.5;}
	.st15{fill:#CAE1F9;}
	.st16{opacity:0.5;fill:#CAE1F9;}
	.st17{fill:#3C8F7C;}
	.st18{fill:#ADAEB5;}
	.st19{fill:#544C60;}
	.st20{opacity:0.3;fill:#EAB054;}
	.st21{fill:#9BC1F9;}
	.st22{opacity:0.2;fill:#9BC1F9;}
	.st23{fill:#EAB054;}
	.st24{fill:#6394DB;}
	.st25{fill:#F8A492;}
	.st26{fill:#E5B05C;}
	.st27{fill:#DD513A;}
	.st28{fill:#FE875E;}
</style>
<g>
	<rect class="st0" width="2871" height="2000"/>
	<path class="st1" d="M1371.75,1280.53c-4.47-3.73-9.86-2.04-25.37-9.21c-3-1.39-10.9-3.59-14.43-4.31
		c-0.66-0.13-1.19-0.64-1.36-1.29c-4.71-17.83-25.35-100.26-27.62-124.03c-2.32-24.31-17.99-127.36-20.39-143.03
		c-0.16-1.07-1.22-1.75-2.26-1.46l-45.04,12.56c-0.92,0.26-1.48,1.19-1.27,2.13c2.78,12.28,20.09,89.41,25.18,128.44
		c4.05,31.12,50.41,130.95,51.34,137.33c0.01,0.06,0.02,0.12,0.03,0.18c0.28,1.92,1.93,3.34,3.87,3.34c11.44,0,48.1-0.01,50.19,0
		C1366.52,1281.2,1373.15,1281.69,1371.75,1280.53z"/>
	<path class="st2" d="M1271.52,959.41c-23.97-72.7-50.77-69.61-50.77-69.61l20.73,152.85c14.8-4.05,34.07-13.05,48.86-17.23
		C1285.44,1002.44,1277.43,977.32,1271.52,959.41z"/>
	<path class="st3" d="M1264.08,770.36c-7.33-47.81-50.59-82.2-95.84-59c-10.17,5.22-23.95,15.81-30.98,24.83
		c-19,24.38-23.86,54.5-43.48,78.18c7.21,5.47,15.93,11.2,26.31,16.71l12.22-16.3l-4.21,20.33c30.37,14.53,73.27,26.53,131.94,26.19
		C1267.42,828.09,1267.99,795.86,1264.08,770.36z"/>
	<path class="st1" d="M1278.19,1830.28c-6.9-5.09-12.48-8.45-34.53-19.15c-1.44-0.7-6.68-4.04-8.56-5.19
		c-4.79-2.93-9.6-7.54-13.74-12.16c-3.95-4.41-5.84-18.55-6.73-29.82c2.27-25.17,38.74-428.85,46.44-472.55
		c7.94-45.11-4.15-113.92-4.15-113.92l-28.16-10.62l-53.45,185.26l4.22,141.02c0,0-12.57,40.65-14.16,64.94
		c-1.59,24.29,18.17,221.46,18.17,221.46h0c0,7.05-0.28,13.43-1.06,17.41c-1.45,7.38-9.53,22.56-5.82,29.5
		c3.71,6.94,7.94,8.68,7.94,8.68l96.04,1.55C1285.86,1836.76,1282.41,1833.38,1278.19,1830.28z"/>
	<path class="st4" d="M1132.42,1163.02c0,0-33.35,50.31-41.29,91.95c-7.94,41.64,5.83,169.61-9.45,224.17
		c-8.27,29.54-39.61,75.15-44.37,113.32s-21.34,148.34-21.34,148.34h0c-2.51,11.57-6.44,25.87-11.54,32.52
		c-3.12,4.07-8.82,9.22-12.57,16.58c-5.83,11.45-2.6,28.5,1.69,37.89c2.21,4.82-0.16,4.81,4.87,6.36
		c14.88,4.6,30.7-3.15,37.03-17.43c3.54-7.98,6.64-18.62,7.27-32.02c0.66-14.21,2.88-25.5,5.25-33.85l0,0l106.61-261.51
		l77.18-225.69l19.77-116.24L1132.42,1163.02z"/>
	<path class="st5" d="M1038.34,1809.21c-23.07,4.22-38.43-9.31-46.42-19.44c-5.86,11.47-8.73,28.59-4.41,38.02
		c3.8,8.3,14.9,8.06,23.64,8.39c9.24,0.34,16.4-4.8,20.98-12.87C1034.28,1819.54,1036.49,1814.85,1038.34,1809.21z"/>
	<path class="st5" d="M1235.08,1805.93c-25.4,6.53-44.18,2.09-54.68-2.15c-2.71,7.69-6.3,17.35-4.4,22.91
		c2.33,6.81,5.65,8.36,8.58,8.43c23.2,0.61,84.99,1.44,102.68,1.67c2.47,0.03,3.83-2.86,2.25-4.76
		C1285.12,1826.78,1236.97,1807.09,1235.08,1805.93z"/>
	<path class="st6" d="M1154.05,1484.4c1.99,0.14,4,0.26,6.02,0.39c0.1,0.01,0.21,0.01,0.31,0.02c1.98,0.12,3.97,0.23,5.96,0.33
		c0.12,0.01,0.24,0.01,0.36,0.02c2,0.1,4,0.2,6.01,0.28c0.1,0,0.2,0.01,0.31,0.01c2.04,0.09,4.09,0.17,6.13,0.23
		c22.77,0.75,50.89,0.46,68.93-2.61c9.2-92.08,12.62-176.12,16.03-194.72c8.26-45.11-7.2-116.31-7.2-116.31l-7.38-1.32l4.66-26.37
		l-123.87,15.62c0,0-34.68,50.31-42.94,91.95c-8.26,41.64,6.06,169.61-9.82,224.17C1077.56,1476.09,1112.93,1481.6,1154.05,1484.4z"
		/>
	<path class="st7" d="M1159.42,876.75c0,0-38.91-5.09-56.38,14c-17.47,19.08,33.51,172.32,36.68,196.61s-16.19,88.87-16.19,88.87
		s103.73,20.92,133.38,1.26c0,0,3.18-174.66,0-192.01c-3.18-17.35-29.65-87.91-36-94.85
		C1214.55,883.69,1159.42,876.75,1159.42,876.75z"/>
	<path class="st8" d="M1174.12,817.61c0,0-0.23,1.3-0.64,3.52c-1.97,10.64-9.55,45.94-14.67,55.64
		c-6.19,11.73,21.19,49.13,47.54,44.57c7.84-1.36-6.63-34.37-5.94-37.86c1.33-6.69,3.14-15.82,4.99-25.19
		c1.04-5.28,2.1-10.64,3.09-15.67c2.82-14.3,5.12-26,5.12-26L1174.12,817.61z"/>
	<path class="st9" d="M1173.48,821.13c0.41-2.22,0.64-3.52,0.64-3.52l39.49-0.99c0,0-2.3,11.7-5.12,26
		c-0.99,5-2.04,10.33-3.07,15.58c-6.1-0.9-12.47-3.87-18.85-9.47c-6.96-6.11-11.53-13.45-14.28-21.29
		C1172.77,824.94,1173.17,822.78,1173.48,821.13z"/>
	<path class="st8" d="M1200.7,727.65c0,0-18.61-2.16-30.28,12.97c-11.67,15.12-24.24,61.9,4.74,87.32
		c28.98,25.43,57.62-3.36,61.87-33.87C1241.27,763.55,1242.92,726.55,1200.7,727.65z"/>
	<path class="st8" d="M1245.6,793.62c-3.46,6.74-9.27,10.47-12.97,8.34c-3.7-2.14-3.9-9.33-0.44-16.07
		c3.46-6.74,9.27-10.47,12.97-8.34C1248.86,779.68,1249.06,786.88,1245.6,793.62z"/>
	<path class="st3" d="M1202.78,722.65c0,0-24.87,44.48-42.66,46.53c-17.79,2.06-20.12,25.69-20.12,25.69s6.36-54.46,23.97-64.96
		C1181.58,719.41,1202.78,722.65,1202.78,722.65z"/>
	<path class="st8" d="M1164.79,780.36c1.45,7.9-1.46,15.14-6.5,16.18c-5.04,1.04-10.29-4.53-11.74-12.42
		c-1.45-7.9,1.46-15.14,6.5-16.18C1158.09,766.89,1163.34,772.46,1164.79,780.36z"/>
	<path class="st10" d="M1186.7,809.05l26.91,5.29c0,0-2.63,10.1-14.53,8.11C1184.57,820.03,1186.7,809.05,1186.7,809.05z"/>
	<path class="st8" d="M906,1030.15c-1.64-3.9,17.54-8.33,18.32-12.42c0.78-4.1-24.74-2.81-25.87-6.3
		c-2.09-6.42,27.86-3.12,27.08-6.13c-0.77-3.01-31.49-7.93-28.54-13.37c2.95-5.44,31.32,8.43,31.93,4.82
		c0.61-3.6-27.55-10.52-27.54-18.34c0-4.18,46.62,17.92,51.7,15.33c5.08-2.59-6.99-21.47-3.01-24.63
		c3.98-3.16,18.59,38.75,21.55,39.99c2.95,1.24,66,32.17,88,36.34c2.18-7.42,18.67-47.06,20.56-54.06
		c12.69,7.89,26.91,8.89,39.94,15.99c-7.66,23.34-35.37,81.35-41.52,84.61c-18.73,9.91-97.14-47.25-112.68-56.9
		c-15.56-9.66-23.86-5.69-34.14-8.41C921.49,1023.95,907.64,1034.05,906,1030.15z"/>
	<path class="st2" d="M1114.26,1048.08c0,0,40.16-80.78,41.37-108.93c1.21-28.14-26.85-59.62-51.18-54.18
		c-24.34,5.44-43.78,135.28-43.78,135.28L1114.26,1048.08z"/>
	<path class="st1" d="M1960.75,1264.75l130.3-33.57c0,0,30.24-57.81,74.6-119.96c14.51,14.36,22.57,36.42,37.18,50.63l-84.92,107.1
		c-3.91,4.32-167.09,20.8-167.09,20.8L1960.75,1264.75z"/>
	<path class="st11" d="M2163.17,959.67c-1.03-24.73,2.62-49.14,13.68-72.16c9.52-19.81,33.07-31.04,54.55-31.07
		c68.2-0.09,76.87,90.02,120.28,124.77c13.26,10.62,28.09,19.27,40.64,30.72c46.35,42.29,25.47,120.57-17.09,157.65
		c-29.53,25.73-75.95,40.35-112.35,20.23c-19-10.5-33.42-27.95-43.7-47.07c-14.58-27.14-23.98-58.45-34.36-87.37
		C2173.79,1024.59,2164.54,992.54,2163.17,959.67z"/>
	<path class="st12" d="M2188.76,1187.85c0,0,51.17-52.47,64.34-75.26c13.17-22.79-8.97-7.96-31.58-13.95
		c-8.56-2.27-6.4-52.44-22.58-36.13c-26.55,26.76-59.94,73.54-59.94,73.54L2188.76,1187.85z"/>
	<g>
		<path class="st1" d="M863.75,1262.12c1.59-2.4-2.31-6.54-5.23-9.65c-3.24-3.44-22.97-12.18-26.33-13.24
			c-3.36-1.06-32.26,2.74-43.35,6.26c-11.08,3.52-18.35,1.96-18.35,1.96c-2.89-0.62-7.24-1.45-10.62-2.18L755.8,1271
			c25.94-0.09,49.96,2.07,52.42,2.04c7.8-0.12,22.15-8.15,25.47-9.32c3.32-1.17,10.02-0.16,14.51,2c4.49,2.16,17.58,7.3,19.79,6.15
			C870.21,1270.72,863.75,1262.12,863.75,1262.12z"/>
	</g>
	<path class="st1" d="M795.22,1243.83l-145.86-36.6c0,0-32.05-61.27-79.06-127.13c-15.37,15.22-23.92,38.59-39.4,53.66l81.6,111.03
		c4.14,4.58,185.48,24.52,185.48,24.52L795.22,1243.83z"/>
	<path class="st13" d="M581.02,1195.16c0,0-41.95-56.05-57.27-82.57c-15.32-26.52,10.43-9.26,36.74-16.23
		c9.96-2.64,1.7-57.03,20.54-38.06c30.89,31.13,61.87,98.57,61.87,98.57L581.02,1195.16z"/>
	<g class="st14">
		<path class="st15" d="M2169.75,508.92h348.25c16.98,0,30.75,13.81,30.75,30.85v203.58c0,17.04-13.77,30.85-30.75,30.85h-243.68
			c-15.67,21.93-44.07,61.21-46.58,61.21c-2.35,0,2.17-37.1,5.36-61.21h-63.36c-16.98,0-30.75-13.81-30.75-30.85V539.77
			C2139,522.73,2152.77,508.92,2169.75,508.92z"/>
	</g>
	<path class="st16" d="M594.84,563.46H247.09c-16.96,0-30.71,13.79-30.71,30.81v203.29c0,17.02,13.75,30.81,30.71,30.81h243.33
		c15.64,21.9,44.01,61.13,46.51,61.13c2.34,0-2.17-37.05-5.35-61.13h63.27c16.96,0,30.71-13.79,30.71-30.81V594.27
		C625.55,577.25,611.8,563.46,594.84,563.46z"/>
	<path class="st12" d="M1212.22,349.43H864.46c-16.96,0-30.71,13.79-30.71,30.81v203.29c0,17.02,13.75,30.81,30.71,30.81h243.33
		c15.64,21.9,44.01,61.13,46.51,61.13c2.34,0-2.17-37.05-5.35-61.13h63.27c16.96,0,30.71-13.79,30.71-30.81V380.24
		C1242.92,363.23,1229.18,349.43,1212.22,349.43z"/>
	<path class="st10" d="M988.6,422.38H876.68c-0.47,0-0.86-0.38-0.86-0.86v-12.21c0-0.47,0.38-0.86,0.86-0.86H988.6
		c0.47,0,0.86,0.38,0.86,0.86v12.21C989.46,422,989.08,422.38,988.6,422.38z"/>
	<path class="st10" d="M944.27,467.86h-67.6c-0.47,0-0.86-0.38-0.86-0.86v-12.21c0-0.47,0.38-0.86,0.86-0.86h67.6
		c0.47,0,0.86,0.38,0.86,0.86V467C945.13,467.48,944.75,467.86,944.27,467.86z"/>
	<path class="st10" d="M1045.1,467.86h-80.17c-0.47,0-0.86-0.38-0.86-0.86v-12.21c0-0.47,0.38-0.86,0.86-0.86h80.17
		c0.47,0,0.86,0.38,0.86,0.86V467C1045.96,467.48,1045.58,467.86,1045.1,467.86z"/>
	<path class="st10" d="M1199.45,467.86h-130.31c-0.47,0-0.86-0.38-0.86-0.86v-12.21c0-0.47,0.38-0.86,0.86-0.86h130.31
		c0.47,0,0.86,0.38,0.86,0.86V467C1200.31,467.48,1199.92,467.86,1199.45,467.86z"/>
	<path class="st10" d="M1200.01,422.38h-173.65c-0.47,0-0.86-0.38-0.86-0.86v-12.21c0-0.47,0.38-0.86,0.86-0.86h173.65
		c0.47,0,0.86,0.38,0.86,0.86v12.21C1200.86,422,1200.48,422.38,1200.01,422.38z"/>
	<path class="st10" d="M1200.01,556.93H876.68c-0.47,0-0.86-0.38-0.86-0.86v-12.21c0-0.47,0.38-0.86,0.86-0.86h323.33
		c0.47,0,0.86,0.38,0.86,0.86v12.21C1200.86,556.55,1200.48,556.93,1200.01,556.93z"/>
	<path class="st10" d="M1022.42,512.92H876.68c-0.47,0-0.86-0.38-0.86-0.86v-12.21c0-0.47,0.38-0.86,0.86-0.86h145.74
		c0.47,0,0.86,0.38,0.86,0.86v12.21C1023.27,512.54,1022.89,512.92,1022.42,512.92z"/>
	<path class="st10" d="M1200.01,512.92h-147.08c-0.47,0-0.86-0.38-0.86-0.86v-12.21c0-0.47,0.38-0.86,0.86-0.86h147.08
		c0.47,0,0.86,0.38,0.86,0.86v12.21C1200.86,512.54,1200.48,512.92,1200.01,512.92z"/>
	<path class="st3" d="M1624.48,318.22h321.05c16.96,0,30.71,13.79,30.71,30.81v203.29c0,17.02-13.75,30.81-30.71,30.81h-216.62
		c-15.64,21.9-44.01,61.13-46.51,61.13c-2.34,0,2.17-37.05,5.35-61.13h-63.27c-16.96,0-30.71-13.79-30.71-30.81V349.03
		C1593.78,332.01,1607.52,318.22,1624.48,318.22z"/>
	<path class="st10" d="M1940.5,422.72h-79.99h0h-76.09c-0.52,0-0.95,0.42-0.95,0.95v12.03c0,0.52,0.42,0.95,0.95,0.95h76.09h3.9
		h76.09c0.52,0,0.95-0.42,0.95-0.95v-12.03C1941.45,423.15,1941.02,422.72,1940.5,422.72z"/>
	<path class="st10" d="M1629.98,436.65h130.31c0.47,0,0.86-0.38,0.86-0.86v-12.21c0-0.47-0.38-0.86-0.86-0.86h-130.31
		c-0.47,0-0.86,0.38-0.86,0.86v12.21C1629.12,436.26,1629.5,436.65,1629.98,436.65z"/>
	<path class="st10" d="M1629.42,391.17h173.65c0.47,0,0.86-0.38,0.86-0.86V378.1c0-0.47-0.38-0.86-0.86-0.86h-173.65
		c-0.47,0-0.86,0.38-0.86,0.86v12.21C1628.57,390.79,1628.95,391.17,1629.42,391.17z"/>
	<path class="st10" d="M1834.47,391.17h106.12c0.47,0,0.86-0.38,0.86-0.86V378.1c0-0.47-0.38-0.86-0.86-0.86h-106.12
		c-0.47,0-0.86,0.38-0.86,0.86v12.21C1833.61,390.79,1834,391.17,1834.47,391.17z"/>
	<polygon class="st10" points="1628.57,525.72 1941.45,525.72 1941.45,525.72 1941.45,511.8 1628.57,511.8 	"/>
	
		<rect x="1792.65" y="467.78" transform="matrix(-1 -1.224647e-16 1.224647e-16 -1 3734.0928 949.4907)" class="st10" width="148.8" height="13.92"/>
	
		<rect x="1629.12" y="467.78" transform="matrix(-1 -1.224647e-16 1.224647e-16 -1 3407.04 949.4907)" class="st10" width="148.8" height="13.92"/>
	<path class="st8" d="M637.61,1768.78c0,0-2.23,36.84-2.24,36.91c-0.82,4.68-4.04,16.23-4.04,20.48c0,15.97,75.85-13.56,58.85-20.64
		c-1.54-0.64-9.6-5.49-10.1-10.92c-0.78-8.38-2.76-25.32-2.76-25.32L637.61,1768.78z"/>
	<path class="st13" d="M686.99,1802.39c0,0-17.81,4.89-26.93,6.11c-9.12,1.22-21.14-9.06-27.59-6.29
		c-7.1,3.06-6.82,30.58-6.82,30.58s95.49,7.83,122.34-0.27C758.62,1829.31,723.39,1813.77,686.99,1802.39z"/>
	<path class="st8" d="M766.36,1768.78c0,0-2.23,36.84-2.24,36.91c-0.82,4.68-4.04,16.23-4.04,20.48c0,15.97,75.85-13.56,58.85-20.64
		c-1.54-0.64-13.02-2.67-13.53-8.11c-0.78-8.38-2.24-34.28-2.24-34.28L766.36,1768.78z"/>
	<path class="st13" d="M815.74,1802.39c0,0-17.81,4.89-26.93,6.11c-9.12,1.22-21.14-9.06-27.59-6.29
		c-7.1,3.06-6.82,30.58-6.82,30.58s95.49,7.83,122.34-0.27C887.38,1829.31,852.14,1813.77,815.74,1802.39z"/>
	<path class="st17" d="M522.04,1373.62l181.3,0.78c0,0,81.89-2.15,94.84,26.17s9.87,387.99,9.87,387.99s-43.71,6.5-45.95,4.1
		l-49.22-215.33c-5.26-18.25-7.06-37.33-5.28-56.24l4.7-50.08l-74.81,3.82c0,0-84.81-1.35-112.77-29.48
		C496.75,1417.22,522.04,1373.62,522.04,1373.62z"/>
	<path class="st6" d="M399.14,1353.63l194.94,11.96c0,0,83.89,6.82,96.84,35.14c12.95,28.32-8.26,391.08-8.26,391.08
		s-48.67,3-48.57,0.87c0.12-2.54-19.97-166.16-31.12-217.98c-3.54-16.45-4.77-33.3-3.68-50.08l7.04-58.07
		c0,0-181.07-1.03-190.06-10.07C388.31,1428.33,399.14,1353.63,399.14,1353.63z"/>
	<path class="st3" d="M576.48,1054.58c-27.13-8.22-77.97-12.53-77.97-12.53s-31.87-5.18-42.22-2.94
		c-15.24,3.3-43.85,4.81-46.52,70.96c-1.91,47.34-7.29,164.46-12.7,243.55l194.03,11.78
		C582.33,1243.72,602.18,1062.37,576.48,1054.58z"/>
	<path class="st8" d="M525.04,985.52l-30.47,56.04c0,0,22.96,40.92,44.67,42.01c18.22,0.92,15.36-26.02,15.36-26.02
		s2.87-34.83,11.61-50.43C574.95,991.53,525.04,985.52,525.04,985.52z"/>
	<path class="st3" d="M527.82,1007.97c6.84,7.29,18.27,16.91,30.66,23.03c1.8-8.74,4.31-17.77,7.73-23.87
		c4.04-7.2-4.42-12.35-14.7-15.82c-13.77-3.66-26.46-5.79-26.46-5.79l-5.86,10.77C520.67,1000.07,525.54,1005.54,527.82,1007.97z"/>
	<g>
		<path class="st8" d="M540.7,891.12c-1.26-0.9-31.32,69.16-18.28,94.37c13.04,25.21,47.48,41.85,64.87,29.69
			c19.24-13.44,40.28-91.87,17.08-120.53C581.17,866,540.7,891.12,540.7,891.12z"/>
		<path class="st11" d="M604.19,852.65c-23.63-1.66-41.92,7.98-48.87,12.32c-10.49-1.63-25.85,0.15-46.67,19.78
			c-25.6,24.14-21.6,59.89-5.59,81.34c16.01,21.45,10.66,39.59,10.66,39.59l5.85-8.53c4.37-6.48,7.44-13.78,8.73-21.49
			c0.77-4.63,1.16-9.75,0.41-14.26c-1.98-11.9,15.42-14.6,22.19-22.16c5.21-5.82,9.67-21.21,18.03-30.91l8.64-6.77
			c0,0,17.61-7.24,30.89-0.12C621.74,908.57,634.51,854.79,604.19,852.65z"/>
		<path class="st8" d="M546.35,951.94c-2.32,8.92-8.38,15.07-13.53,13.73c-5.15-1.34-7.44-9.66-5.12-18.58
			c2.32-8.92,8.38-15.07,13.53-13.73C546.38,934.7,548.67,943.01,546.35,951.94z"/>
	</g>
	<path class="st10" d="M570.86,980.86l28.46,6.35c0,0-3.07,10.66-15.66,8.23C568.3,992.48,570.86,980.86,570.86,980.86z"/>
	<g>
		<ellipse class="st18" cx="423.3" cy="764.7" rx="31.08" ry="19.25"/>
		<path class="st11" d="M423.3,355.72c77.39,0,140.13,62.74,140.13,140.13c0,42.28-18.73,80.19-48.35,105.89
			c-0.1,0.11-21.89,23.66-25.48,48.32l-0.65,15.09c-0.21,4.95-2.16,9.67-5.49,13.33c-0.29,0.33-0.6,0.64-0.92,0.94H364.06
			c-0.31-0.3-0.62-0.62-0.92-0.94c-3.33-3.67-5.27-8.38-5.49-13.33l-0.65-15.09c-3.59-24.66-25.38-48.21-25.48-48.32
			c-29.62-25.69-48.35-63.6-48.35-105.89C283.18,418.45,345.92,355.72,423.3,355.72z"/>
		<path class="st19" d="M417.67,766.85h11.27c29.77,0,53.91-24.13,53.91-53.91v-33.53H363.76v33.53
			C363.76,742.72,387.9,766.85,417.67,766.85z"/>
		<path class="st20" d="M388.18,602.98c77.43,0,140.2-62.77,140.2-140.2c0-31.44-10.35-60.46-27.82-83.85
			c37.88,25.08,62.87,68.08,62.87,116.91c0,42.28-18.73,80.19-48.35,105.89c-0.1,0.11-21.89,23.66-25.48,48.32l-0.65,15.09
			c-0.21,4.95-2.16,9.67-5.49,13.33c-0.29,0.33-0.6,0.64-0.92,0.94H364.06c-0.31-0.3-0.62-0.62-0.92-0.94
			c-3.33-3.67-5.27-8.38-5.49-13.33l-0.65-15.09c-3.59-24.66-25.38-48.21-25.48-48.32c-7.49-6.5-14.28-13.78-20.26-21.72
			C333.35,594.53,359.77,602.98,388.18,602.98z"/>
		<g>
			<polygon class="st10" points="424.29,563.8 452.13,442.36 476.57,513 483.73,510.52 450.65,414.88 422.24,538.8 393.14,467.77 
				366.19,513.27 372.72,517.13 391.9,484.74 			"/>
		</g>
		<g>
			<path class="st19" d="M459.38,697.67l0.67,0.07c3.52,0.36,6.67-2.19,7.03-5.71L486.56,504c0.36-3.52-2.19-6.67-5.71-7.03
				l-0.67-0.07c-3.52-0.36-6.67,2.19-7.03,5.71l-19.47,188.03C453.31,694.16,455.87,697.31,459.38,697.67z"/>
			<path class="st19" d="M386.82,697.71L386.82,697.71c-3.7,0.38-7.02-2.31-7.4-6.01l-19.4-187.36c-0.38-3.7,2.31-7.02,6.01-7.4l0,0
				c3.7-0.38,7.02,2.31,7.4,6.01l19.4,187.36C393.21,694.01,390.52,697.32,386.82,697.71z"/>
		</g>
		<path class="st18" d="M364.64,692.6H481.9c3.3,0,5.97-2.67,5.97-5.97v-1.25c0-3.3-2.67-5.97-5.97-5.97H364.64
			c-3.3,0-5.97,2.67-5.97,5.97v1.25C358.67,689.92,361.34,692.6,364.64,692.6z"/>
		<path class="st18" d="M364.64,719.02H481.9c3.3,0,5.97-2.67,5.97-5.97v-1.25c0-3.3-2.67-5.97-5.97-5.97H364.64
			c-3.3,0-5.97,2.67-5.97,5.97v1.25C358.67,716.35,361.34,719.02,364.64,719.02z"/>
		<path class="st18" d="M371.5,748.6h103.53c3.3,0,5.97-2.67,5.97-5.97v-1.25c0-3.3-2.67-5.97-5.97-5.97H371.5
			c-3.3,0-5.97,2.67-5.97,5.97v1.25C365.53,745.92,368.21,748.6,371.5,748.6z"/>
	</g>
	<path class="st8" d="M720.58,1246.65l-149.88-39.64c0,0-45.88-51.86-89-111.54c-15.41,12.74-21.96,46.37-37.46,58.96l98.96,98.5
		c3.43,4.56,169.77,16.34,169.77,16.34L720.58,1246.65z"/>
	<path class="st13" d="M478.47,1204.98c0,0-50.95-64.75-63.39-90.17c-12.44-25.42,0.86-65.67,25.55-70.43
		c24.7-4.76,96.21,111.39,96.21,111.39L478.47,1204.98z"/>
	<g>
		<path class="st8" d="M813.48,1267.04c1.6-2.13-1.77-6.16-4.29-9.19c-2.8-3.35-20.52-12.5-23.56-13.67
			c-3.04-1.16-29.92,0.76-40.33,3.39c-10.42,2.64-17.04,0.8-17.04,0.8c-2.63-0.73-6.6-1.74-9.67-2.6l-8.02,23.32
			c23.94,1.35,48.83,4.85,51.1,4.95c7.2,0.31,20.88-6.3,24.01-7.2c3.13-0.89,9.26,0.4,13.28,2.64c4.02,2.24,15.81,7.7,17.91,6.76
			C818.97,1275.32,813.48,1267.04,813.48,1267.04z"/>
	</g>
	<path class="st21" d="M2505.8,478.04c-9.35-0.44-18.71-0.55-28.04-1.17c-1.7-0.11-4.07-1.62-4.8-3.13
		c-4.75-9.74-8.95-19.76-13.77-29.46c-1.4-2.82-1.65-4.6,0.31-7.18c6.91-9.07,13.58-18.32,20.32-27.51
		c1.09-1.49,2.14-3.02,3.99-5.65c-12.72-11.2-25.29-22.28-38.18-33.64c-10.19,9.36-19.59,17.72-28.64,26.45
		c-3.19,3.08-5.46,3.88-9.93,1.9c-9.12-4.04-18.8-6.81-28.14-10.37c-1.43-0.55-3.05-2.43-3.32-3.92
		c-2.05-11.38-4.13-22.78-5.48-34.26c-0.65-5.51-3.04-7.23-8.13-6.88c-1.95,0.13-3.95-0.44-5.93-0.69
		c-8.84,0.47-17.69,0.95-26.53,1.42c-0.94,0.34-1.85,0.85-2.82,1c-10.15,1.62-8.54,0.74-9.03,10.33
		c-0.59,11.69-0.99,23.39-1.4,33.54c-13.16,6.42-25.46,12.42-38.16,18.61c-11.27-8.27-23.05-16.92-34.91-25.62
		c-13.46,10.9-24.13,23.73-33.54,38.05c9.23,10.01,18.2,19.79,27.24,29.5c1.62,1.74,2.24,3.02,1.17,5.67
		c-4.16,10.37-8.07,20.87-11.51,31.5c-0.99,3.06-2.33,3.89-5.14,4.31c-11.61,1.74-23.19,3.75-34.79,5.54
		c-2.88,0.44-4.33,1.42-4.66,4.71c-1.5,14.75,0.17,29.22,3.08,43.63c0.58,2.85,2.32,3.18,4.78,3.25c11.4,0.34,22.8,0.95,34.2,1.2
		c3.29,0.07,4.8,0.94,6.19,4.28c4.79,11.55,10.26,22.82,15.89,35.11c-7.52,10.25-16.05,21.87-24.58,33.5
		c11.05,13.76,23.48,25.15,38.13,34.31c10.87-10.12,21.45-19.97,31.03-28.88c11.62,3.71,22.33,7.45,33.25,10.47
		c4.12,1.14,5.79,2.88,6.33,7.06c1.44,11.14,3.32,22.22,5.13,33.31c0.36,2.19,0.2,5.09,3.83,4.87c14.75-0.9,29.5-1.79,44.26-2.7
		c3.14-0.19,4.15-1.9,4.22-5.01c0.28-11.57,1.07-23.13,1.15-34.7c0.03-4.46,2.12-5.9,5.75-7.5c8.99-3.94,17.95-8.09,26.43-12.99
		c3.66-2.11,5.55-1.98,8.72,0.49c10.19,7.92,20.69,15.45,30.85,22.97c8.94-5.45,28.64-27.9,34.1-38.7
		c-8.98-9.57-17.96-19.34-27.2-28.86c-2.31-2.38-2.21-4.07-1.11-7.02c3.55-9.52,6.44-19.29,9.89-28.85c0.58-1.61,2.59-3.52,4.2-3.8
		c10.22-1.8,20.51-3.23,30.8-4.67c5.75-0.8,8.07-1.11,9.11-3.34l-2.52-47.07C2516.17,478.55,2513.36,478.39,2505.8,478.04z
		 M2427.37,508.75c2.26,42.07-30.02,78.01-72.1,80.27l0,0c-42.07,2.26-78.01-30.02-80.27-72.1l0,0
		c-2.26-42.07,30.02-78.01,72.1-80.27l0,0C2389.17,434.4,2425.11,466.68,2427.37,508.75L2427.37,508.75z"/>
	<path class="st22" d="M2716.47,596.61c-3.83-1.55-7.72-2.96-11.52-4.58c-0.69-0.3-1.46-1.27-1.54-2.01
		c-0.56-4.75-0.85-9.54-1.44-14.28c-0.17-1.38-0.02-2.16,1.18-2.94c4.2-2.77,8.33-5.65,12.48-8.5c0.67-0.46,1.33-0.95,2.49-1.77
		c-3.66-6.52-7.29-12.97-11-19.59c-5.61,2.41-10.75,4.52-15.79,6.84c-1.78,0.82-2.84,0.82-4.41-0.66
		c-3.21-3.01-6.84-5.58-10.21-8.43c-0.52-0.44-0.92-1.46-0.81-2.12c0.81-5.04,1.6-10.1,2.71-15.08c0.53-2.39-0.21-3.46-2.38-4.05
		c-0.83-0.23-1.58-0.76-2.37-1.15c-3.75-1.09-7.51-2.18-11.26-3.28c-0.44,0.01-0.9,0.08-1.32,0.01c-4.47-0.8-3.67-0.94-5.27,2.99
		c-1.95,4.78-3.82,9.6-5.48,13.77c-6.42,0.75-12.42,1.46-18.62,2.19c-3.49-5.09-7.14-10.41-10.81-15.77
		c-7.2,2.58-13.52,6.37-19.52,10.96c2.38,5.52,4.7,10.9,7.05,16.27c0.42,0.96,0.49,1.59-0.34,2.53c-3.25,3.72-6.41,7.52-9.39,11.45
		c-0.86,1.13-1.54,1.28-2.77,1.05c-5.09-0.97-10.21-1.82-15.31-2.77c-1.27-0.24-2.01-0.04-2.63,1.28
		c-2.78,5.93-4.19,12.2-5.08,18.63c-0.18,1.27,0.5,1.66,1.52,2.05c4.7,1.8,9.36,3.72,14.08,5.49c1.36,0.51,1.86,1.09,1.95,2.69
		c0.31,5.51,0.95,11.01,1.5,16.95c-4.63,3.17-9.88,6.77-15.13,10.37c2.6,7.34,6.11,13.9,10.88,19.86
		c6.01-2.63,11.85-5.19,17.14-7.51c4.3,3.24,8.22,6.36,12.33,9.21c1.55,1.08,1.99,2.04,1.61,3.87c-1.02,4.85-1.86,9.74-2.72,14.63
		c-0.17,0.97-0.66,2.15,0.89,2.59c6.28,1.78,12.56,3.56,18.83,5.33c1.33,0.38,2-0.19,2.49-1.47c1.8-4.78,3.82-9.48,5.54-14.29
		c0.67-1.86,1.74-2.15,3.49-2.28c4.32-0.33,8.66-0.75,12.91-1.56c1.83-0.35,2.6-0.02,3.56,1.48c3.09,4.79,6.37,9.46,9.5,14.07
		c4.52-0.97,16.01-7.45,19.85-11.15c-2.34-5.3-4.66-10.68-7.12-15.99c-0.62-1.33-0.33-2.02,0.56-3.09c2.87-3.45,5.5-7.1,8.33-10.58
		c0.48-0.59,1.59-1.09,2.3-0.97c4.52,0.74,9.02,1.65,13.51,2.55c2.51,0.5,3.53,0.72,4.28-0.06l5.82-19.98
		C2720.71,598.34,2719.56,597.86,2716.47,596.61z M2679.3,597.97c-5.2,17.86-23.89,28.13-41.75,22.93l0,0
		c-17.86-5.2-28.13-23.89-22.93-41.75l0,0c5.2-17.86,23.89-28.13,41.75-22.93l0,0C2674.24,561.41,2684.5,580.11,2679.3,597.97
		L2679.3,597.97z"/>
	
		<rect x="2189.59" y="1520.16" transform="matrix(-1 -1.224647e-16 1.224647e-16 -1 4398.1699 3318.0566)" class="st2" width="18.99" height="277.73"/>
	<g>
		<path class="st8" d="M1974.8,1726.86c0,0-4.15,43.35-1.42,57.48c0.37,1.89,1.17,4.29,2.11,6.93c2.81,7.92-4.89,32.12-4.89,32.12
			l-103.34,0.37c-5.63,0.02-1.87-3.39,2.71-6.52c7.5-5.12,13.53-8.5,37.4-19.16c1.56-0.7,7.23-4.05,9.28-5.21
			c5.19-2.94,10.42-7.6,14.94-12.28c7.52-7.79,8.66-46,8.66-46L1974.8,1726.86z"/>
		<path class="st6" d="M1916.66,1792.87c27.24,7.01,47.5,2.7,58.85-1.51c2.81,7.91,7.64,37.64,4.49,37.64
			c-25.92,0-47.39,1.71-121.64,0.6c-2.66-0.04-2.33-8.77-0.6-10.7C1862.55,1813.58,1914.61,1794.03,1916.66,1792.87z"/>
		<path class="st8" d="M1857.83,1654.98c0,0-22.6,37.79-26.26,51.73c-0.49,1.87-0.8,4.37-1.09,7.14
			c-0.88,8.33-18.4,27.29-18.4,27.29l-94.18-40.67c-5.13-2.21-0.22-3.83,5.3-4.86c9.04-1.69,16-2.36,42.35-2.59
			c1.72-0.02,8.34-0.81,10.71-1.05c6-0.62,12.79-2.78,18.93-5.24c10.23-4.1,27.86-38.41,27.86-38.41L1857.83,1654.98z"/>
		<path class="st6" d="M1776.28,1691.96c21.74,17.19,42.04,21.31,54.2,21.98c-0.88,8.31-7.68,34.75-10.55,33.5
			c-23.58-10.28-45.57-14.72-112.63-45.2c-2.4-1.09,1.68-8.9,4.1-9.97C1718.05,1689.34,1773.9,1692.21,1776.28,1691.96z"/>
		<path class="st11" d="M2179.26,1332.27v22.28l-219.08,44.04l-54.38,156.14l30.3-19.78l-7,240.44l46.08,0.31
			c0,0,79.85-201.73,53.65-303.18l242.48,3.55c0,0,109.89-40.56,53.19-162.87L2179.26,1332.27z"/>
		<path class="st23" d="M2179.26,1354.54c0,0-227.27,1.46-243.41,13.34s-137.26,307.14-137.26,307.14l52.83,18.86
			c0,0,105.09-167.51,110.65-179.46c5.56-11.95,46.27-99.3,61.8-108.21C2039.41,1397.31,2179.26,1354.54,2179.26,1354.54z"/>
	</g>
	<path class="st2" d="M2299.64,1810.28h-188.7c-8.69,0-15.74,7.05-15.74,15.74l0,0c0,1.52,1.23,2.75,2.75,2.75h214.67
		c1.52,0,2.75-1.23,2.75-2.75l0,0C2315.38,1817.32,2308.33,1810.28,2299.64,1810.28z"/>
	<path class="st2" d="M2211.7,1797.89h-23.12c-6.84,0-12.38,5.54-12.38,12.38l0,0c0,6.84,5.54,12.38,12.38,12.38h23.12
		c6.84,0,12.38-5.54,12.38-12.38l0,0C2224.08,1803.44,2218.53,1797.89,2211.7,1797.89z"/>
	<path class="st6" d="M2261.09,1039.58c0,0,45.71-9.02,66.57,8.4c20.86,17.43-4.47,172.36-4.45,198.05
		c0.02,25.69,14.32,98.25,14.32,98.25s-138.54,24.25-160.54-14.31c0,0-6.26-146.9-5.33-165.37c0.93-18.47,21.47-94.02,27.15-102.11
		C2204.49,1054.4,2261.09,1039.58,2261.09,1039.58z"/>
	<path class="st8" d="M2261.38,968.87c0,0,0.24,1.37,0.67,3.69c2.07,11.16,10.06,48.16,15.45,58.34
		c6.52,12.29-22.31,51.51-50.06,46.72c-8.26-1.42,6.98-36.03,6.25-39.7c-1.4-7.02-3.3-16.59-5.25-26.41
		c-1.1-5.54-2.21-11.15-3.25-16.43c-2.97-15-5.39-27.26-5.39-27.26L2261.38,968.87z"/>
	<path class="st3" d="M2262.05,972.56c-0.43-2.33-0.67-3.69-0.67-3.69l-41.58-1.03c0,0,2.42,12.26,5.39,27.26
		c1.04,5.25,2.14,10.83,3.24,16.34c6.42-0.94,13.13-4.06,19.85-9.93c7.33-6.41,12.14-14.1,15.04-22.32
		C2262.8,976.56,2262.37,974.29,2262.05,972.56z"/>
	<path class="st8" d="M2233.39,874.55c0,0,19.6-2.26,31.88,13.6c12.29,15.86,25.53,64.89-4.99,91.56
		c-30.52,26.66-60.67-3.52-65.14-35.51C2190.67,912.19,2188.93,873.39,2233.39,874.55z"/>
	<path class="st8" d="M2186.11,943.71c3.64,7.07,9.76,10.98,13.66,8.74c3.9-2.24,4.11-9.78,0.46-16.85
		c-3.64-7.07-9.76-10.98-13.66-8.74C2182.68,929.1,2182.47,936.65,2186.11,943.71z"/>
	<path class="st11" d="M2231.2,869.31c0,0,26.18,46.63,44.92,48.79c18.73,2.15,21.19,26.93,21.19,26.93s-6.7-57.1-25.24-68.11
		C2253.52,865.91,2231.2,869.31,2231.2,869.31z"/>
	<path class="st8" d="M2271.2,929.81c-1.52,8.28,1.54,15.88,6.84,16.96c5.3,1.09,10.84-4.75,12.36-13.03
		c1.52-8.28-1.54-15.88-6.84-16.96C2278.26,915.7,2272.73,921.53,2271.2,929.81z"/>
	<path class="st10" d="M2213.07,961.97l22.9-1.19c0,0-0.08,8.73-10.13,9.54C2213.58,971.31,2213.07,961.97,2213.07,961.97z"/>
	<path class="st3" d="M2297.41,1459.41c0,0-225.94,3.87-249.49,0c-23.55-3.87-33.75,25.66-26.72,41.13s26.37,21.44,54.84,22.85
		c28.48,1.41,265.43,8.08,272.11,1.76c5.46-5.17,77.29-250.75,103.42-340.56c5.22-17.95-5.08-36.71-23.02-41.97l0,0
		c-17.85-5.24-36.6,4.89-41.99,22.7L2297.41,1459.41z"/>
	<g>
		<rect x="469" y="1520.56" class="st2" width="19.1" height="279.36"/>
		<path class="st2" d="M382.01,1812.38h189.81c8.74,0,15.83,7.09,15.83,15.83l0,0c0,1.53-1.24,2.77-2.77,2.77H368.94
			c-1.53,0-2.77-1.24-2.77-2.77l0,0C366.18,1819.47,373.26,1812.38,382.01,1812.38z"/>
		<path class="st2" d="M467.51,1799.93h23.25c6.88,0,12.46,5.58,12.46,12.46l0,0c0,6.88-5.58,12.46-12.46,12.46h-23.25
			c-6.88,0-12.46-5.58-12.46-12.46l0,0C455.05,1805.5,460.63,1799.93,467.51,1799.93z"/>
		<path class="st7" d="M601.52,1488.4l-13.06-54.37c-9.13-38.02-42.8-65.69-81.88-67.27l-165.42-6.69l-5.11-16.84l171.19,6.92
			c46.47,1.88,86.51,34.78,97.37,79.99l13.88,57.77C613.8,1488.13,608.07,1488.28,601.52,1488.4z"/>
		<path class="st11" d="M379.64,1459.45c0,0,227.27,3.89,250.96,0c23.69-3.89,33.95,25.82,26.88,41.38
			c-7.07,15.56-26.52,21.57-55.17,22.99c-28.64,1.41-266.99,8.13-273.71,1.77c-5.49-5.2-77.74-252.22-104.03-342.56
			c-5.25-18.06,5.11-36.92,23.15-42.22l0,0c17.96-5.27,36.81,4.92,42.24,22.83L379.64,1459.45z"/>
	</g>
	<g>
		<path class="st5" d="M1097.45,1118.11H907.86c-5.02,0-9.54,3.03-11.44,7.67l-58.38,142.38H733.52c-2.92,0-5.29,2.37-5.29,5.29l0,0
			c0,2.92,2.37,5.29,5.29,5.29H1031c8.18,0,15.6-4.8,18.95-12.26l58.78-130.94C1112.4,1127.36,1106.42,1118.11,1097.45,1118.11z"/>
		<path class="st10" d="M995.37,1201.02c-1.28,6.4-6.86,10.67-12.46,9.55c-5.6-1.12-9.1-7.21-7.82-13.61
			c1.28-6.4,6.86-10.67,12.46-9.55C993.15,1188.54,996.66,1194.63,995.37,1201.02z"/>
	</g>
	<g>
		<path class="st24" d="M1737.65,1118.11h189.59c5.02,0,9.54,3.03,11.44,7.67l58.38,142.38h104.52c2.92,0,5.29,2.37,5.29,5.29l0,0
			c0,2.92-2.37,5.29-5.29,5.29H1804.1c-8.18,0-15.6-4.8-18.95-12.26l-58.78-130.94C1722.7,1127.36,1728.68,1118.11,1737.65,1118.11z
			"/>
		<path class="st10" d="M1839.73,1201.02c1.28,6.4,6.86,10.67,12.46,9.55c5.6-1.12,9.1-7.21,7.82-13.61s-6.86-10.67-12.46-9.55
			C1841.95,1188.54,1838.45,1194.63,1839.73,1201.02z"/>
	</g>
	<path class="st2" d="M701.97,1310.53h1403.61c2.57,0,4.65-2.08,4.65-4.65v-22.49c0-2.57-2.08-4.65-4.65-4.65H701.97
		c-2.57,0-4.65,2.08-4.65,4.65v22.49C697.31,1308.45,699.4,1310.53,701.97,1310.53z"/>
	<polygon class="st2" points="2039.71,1833.5 2062.33,1833.5 2013.59,1310.53 1990.97,1310.53 	"/>
	<polygon class="st2" points="1847.48,1833.5 1824.86,1833.5 1873.6,1310.53 1896.23,1310.53 	"/>
	<polygon class="st2" points="947.33,1833.5 969.95,1833.5 921.21,1310.53 898.58,1310.53 	"/>
	<path class="st25" d="M1661.11,1029.1c-1.2,4.14-1.89,5.52-3.42,8.3c-9.86,17.94-32.73,43.55-32.73,43.55l-17.69-39.87
		c0,0,2.88-12.52,7.89-30.41C1632.24,1015.13,1648.51,1017.72,1661.11,1029.1z"/>
	<path class="st26" d="M1559.66,994.52c0,0,98.69,42.5,101.88,41.69c2.05-0.52,40.48-64.84,40.89-125.33
		c0.19-27.94-28.82-61.54-61.19-54.89c-16.3,3.35-16.04,7.88-40.15,42.91C1576.98,933.93,1559.66,994.52,1559.66,994.52z"/>
	<path class="st8" d="M1475.41,1756.49c0,0,2.34,38.76,2.35,38.84c0.86,4.92,4.25,17.08,4.25,21.55c0,16.81-79.8-14.27-61.92-21.71
		c1.62-0.67,10.1-5.77,10.63-11.49c0.82-8.81,2.9-26.64,2.9-26.64L1475.41,1756.49z"/>
	<path class="st27" d="M1417.49,1793.77c0,0,19.07,5.74,28.84,7.18c9.77,1.44,22.65-10.65,29.56-7.39
		c7.61,3.59,7.31,35.95,7.31,35.95s-102.29,9.21-131.05-0.32C1340.76,1825.42,1378.5,1807.15,1417.49,1793.77z"/>
	<path class="st8" d="M1638.67,1756.49c0,0,2.34,38.76,2.36,38.84c0.86,4.92,4.25,17.08,4.25,21.55c0,16.81-79.8-14.27-61.92-21.71
		c1.62-0.67,12.61-9.58,13.15-15.3c0.82-8.81,0.39-22.84,0.39-22.84L1638.67,1756.49z"/>
	<path class="st27" d="M1583.69,1793.77c0,0,19.07,5.74,28.84,7.18s22.65-10.65,29.56-7.39c7.61,3.59,7.91,35.95,7.91,35.95
		s-102.75,10.74-131.65-0.32C1507.13,1824.9,1544.69,1807.15,1583.69,1793.77z"/>
	<g>
		<path class="st8" d="M1614.28,1050.58l-70.29-98.46c-0.29-0.86-0.93-2.62-1.91-5.32c-3.54-9.77-10.91-30.1-17.32-50.33l-0.07-0.22
			c-2.02-7.07-6.29-19.4-10.42-31.33c-4.6-13.26-10.3-29.71-10.5-32.52c0.18-0.48,0.51-1.34,0.95-2.48
			c2.58-6.69,6.06-22.62,7.29-29.55c0.79-4.41,1.57-15.13-3.67-15.13c-8.24,0-4.32,10.71-8.12,17.4c-1.4-4.47-4.22-13.34-5.71-22.31
			l-1.38-20.93c-0.27-1.58,1.41-13.13-4.37-13.13l-0.28,0.01c-5.19,0.38-5.08,12.66-7.24,33.42c-0.68-2.39-1.37-5.27-1.88-7.92
			c0.06-1.42-0.98-7.66-1.76-10.96c1.04-5.79,0.44-14.91-5.73-14.05c-3.09,0.43-2.83,13.17-2.83,13.17
			c0.03,1.75,0.21,15.21,0.12,17.87c-0.64-4.52-3.1-23.79-7.94-23.79c-4.01,0-4.33,5.19-4.25,9.29c0.05,2.43,2.57,23.31,2.71,25.74
			c-1.89-3.17-4.13-21.57-6-21.57c-7.82,0-4.99,26.16-2.12,32.98c0.27,0.7,0.56,2.06,0.89,3.65c0.98,4.66,2.61,12.46,6.7,19.46
			c4.91,8.4,11.68,21.75,12.71,23.79c0.76,4.17,3.11,19.17,6.07,38.03c1.27,8.07,2.65,16.92,4.1,26.09l0.08-0.01
			c0.26,1.98,1.73,8.29,7.29,31.96c7.61,32.39,8.4,33.79,8.74,34.39c3.3,5.85,79.09,108.76,82.31,113.14l1.9,2.58L1614.28,1050.58z"
			/>
		<path class="st3" d="M1483.54,820.93c0,0,5.7-14.59,15.86-14.62c0,0-5.67-2.05-10.54,1.8
			C1484,811.98,1483.54,820.93,1483.54,820.93z"/>
	</g>
	<g>
		<path class="st8" d="M1631.26,792.75l9.05,57.22c0,0-34.48,27.68-54.57,21.84c-16.86-4.9-5.3-26.94-5.3-26.94
			s8.98-30.55,6.23-46.56C1583.9,782.3,1631.26,792.75,1631.26,792.75z"/>
		<path class="st28" d="M1624.76,810.05c-8.64,4.08-25.73,9.65-39.02,11c1.27-8.01,2-16.48,0.92-22.74
			c-1.27-7.39,8.13-9.14,18.62-8.88c13.73,1.18,25.97,3.32,25.97,3.32l1.74,11C1630.39,806.5,1627.64,808.69,1624.76,810.05z"/>
		<path class="st8" d="M1674.77,726.74c1.42,0.01-13.63,63.93-36.92,74.92c-23.29,11-58.03,5.27-64.55-11.95
			c-7.21-19.04,19.09-84.26,51.85-92.54C1657.91,688.89,1674.77,726.74,1674.77,726.74z"/>
		<path class="st2" d="M1647.81,668.01c18.61,10.73,27.14,26.65,30.02,33.16c8.73,4.14,19.3,13.11,24.37,37.26
			c6.24,29.69-15.94,52.58-39.44,59.47c-23.51,6.89-27.14,22.44-27.14,22.44l-2.67-16.74c0,0,5.23-14.58,13.09-21.87
			c7.86-7.29-3.72-17.93-4.74-26.6c-0.78-6.68,4.13-19.64,3.07-30.6c0,0-13.06-19.79-25.94-24.69
			C1596.48,691.51,1623.94,654.24,1647.81,668.01z"/>
		<path class="st8" d="M1637.91,766.26c-3.04,7.38-1.8,14.71,2.78,16.37c4.58,1.66,10.76-2.98,13.8-10.36
			c3.04-7.38,1.8-14.71-2.78-16.37C1647.14,754.24,1640.96,758.88,1637.91,766.26z"/>
	</g>
	<path class="st25" d="M1551.15,1052.16l-135.58-22.1c0,0,15.43-38.83,20.94-38.83c5.51,0,102.51,42.35,102.51,42.35l7.72,15.49
		L1551.15,1052.16z"/>
	<path class="st24" d="M1620.59,1145.12c0,0,13.52,65.38,8.01,114.96c-5.51,49.58-5.94,225.69-5.94,225.69l21.03,281.78l-49.9,1.09
		c0,0-59.18-281.65-58.07-274.42c1.1,7.23-19.84-198.31-19.84-198.31l70.55-156.99L1620.59,1145.12z"/>
	<path class="st5" d="M1607.37,1142.02c0,0,8.82,58.87-2.2,84.69c-11.02,25.82-94.55,279.17-95.65,299.83
		s-28.88,248.98-28.88,248.98l-58.03-1.63l-12.55-253.85l26.29-319.05l25.52-80.67L1607.37,1142.02z"/>
	<path class="st8" d="M1640.31,849.97c0,0-14.31,9.39-27.66,8.3c-13.35-1.09-32.22-13.4-32.22-13.4l2.62-8.89
		c0,0,34.53-5.03,35.4-4.49C1619.32,832.04,1640.31,849.97,1640.31,849.97z"/>
	<path class="st25" d="M1487.79,989.31c0,0-51.28,48.39-74.43,40.13c-23.15-8.26-32.73-36.51,23.75-77.83
		C1487.66,914.63,1487.79,989.31,1487.79,989.31z"/>
	<path class="st11" d="M1453.04,1049.06c7.62-41.45,62.83-170.42,67.24-194.18c2.14-11.55,31.93-11.81,60.29-10.3
		c29.96,1.59,59.73,5.38,59.73,5.38s26.53,4.36,38.2,15.29c11.67,10.94,14.77,41.18-2,98.59c-13.24,45.32-29.66,70.2-37.79,103.21
		c-1.65,11.07-3.06,22-4.92,34.76c-2.99,49.36,0.04,114.56,0.04,114.56s-144.4,29.95-198.41-15.49
		C1435.41,1200.89,1445.24,1091.53,1453.04,1049.06z"/>
	<path class="st26" d="M1416.23,959.95c0,0,56.66,46.77,59.97,46.77c2.13,0,80.86-57.91,99.03-105.49
		c10.05-26.3-11.03-55.73-35.09-55.63c-16.68,0.07-24.1,4.37-57.17,32.25C1449.89,905.73,1416.23,959.95,1416.23,959.95z"/>
	<polygon class="st2" points="755.1,1833.5 732.48,1833.5 781.22,1310.53 803.84,1310.53 	"/>
	<path class="st17" d="M2437.75,1838.04H307.14c-2.25,0-4.08-1.83-4.08-4.08v-0.85c0-2.25,1.83-4.08,4.08-4.08h2130.61
		c2.25,0,4.08,1.83,4.08,4.08v0.85C2441.83,1836.22,2440,1838.04,2437.75,1838.04z"/>
	<path class="st8" d="M2058.39,1191.49c-1.58-4.57,20.64-8.18,21.83-12.79s-28.01-5.08-29.04-9.14c-1.9-7.48,32.02-1.46,31.37-4.96
		c-0.66-3.5-35.33-11.43-31.56-17.41c3.77-5.98,35.1,11.97,36.07,7.91c0.96-4.07-30.64-14.08-30.04-23
		c0.32-4.77,51.84,23.96,57.84,21.39c6-2.57-6.35-25.03-1.57-28.33s18.29,45.61,21.57,47.26c3.27,1.64,72.88,41.69,97.67,48.1
		c3.04-8.3,24.85-52.29,27.54-60.14c13.89,9.96,30.03,12.18,44.37,21.26c-10.5,26.05-46.49,90.16-53.76,93.41
		c-22.12,9.9-107.28-61.23-124.29-73.42c-17.02-12.19-26.8-8.29-38.32-12.17C2076.53,1185.58,2059.97,1196.06,2058.39,1191.49z"/>
	<path class="st12" d="M2311.08,1188.63c0,0,30.13-66.8,34.71-92.73c4.58-25.92-17.67-58.47-40.96-56.37
		c-23.3,2.1-58.22,117.44-58.22,117.44L2311.08,1188.63z"/>
	<path class="st10" d="M1579.36,768.63l21.23,9.56c0,0-4.12,7.84-13.58,3.91C1575.48,777.3,1579.36,768.63,1579.36,768.63z"/>
	<path class="st15" d="M2624.57,852.18c-5.14-4.67-10.45-9.16-15.49-13.93c-0.92-0.87-1.56-2.85-1.27-4.07
		c1.89-7.82,4.22-15.54,6.06-23.37c0.53-2.28,1.23-3.41,3.57-3.96c8.24-1.92,16.43-4.06,24.64-6.13c1.33-0.34,2.65-0.72,4.95-1.34
		c-1.98-12.43-3.93-24.71-5.94-37.31c-10.26,0.53-19.59,0.87-28.9,1.59c-3.28,0.25-4.96-0.37-6.58-3.61
		c-3.31-6.63-7.54-12.79-11.2-19.25c-0.56-0.99-0.6-2.83-0.05-3.81c4.21-7.48,8.42-14.99,13.07-22.2c2.23-3.46,1.68-5.58-1.39-7.78
		c-1.18-0.85-2.05-2.12-3.07-3.2c-5.28-3.91-10.57-7.82-15.85-11.73c-0.7-0.25-1.46-0.39-2.09-0.76c-6.58-3.87-5.24-3.62-10.05,1.64
		c-5.87,6.41-11.63,12.92-16.67,18.53c-10.57-2.55-20.44-4.94-30.64-7.4c-2.54-10.07-5.19-20.58-7.86-31.17
		c-12.86-0.13-25.03,2.16-37.19,5.91c0.54,10.09,1.05,19.93,1.63,29.77c0.1,1.77-0.15,2.79-2.01,3.8
		c-7.29,3.97-14.49,8.13-21.49,12.58c-2.02,1.28-3.17,1.12-4.98,0.04c-7.47-4.5-15.04-8.82-22.53-13.29
		c-1.86-1.11-3.15-1.23-4.9,0.49c-7.83,7.73-13.72,16.8-18.87,26.42c-1.02,1.91-0.18,2.92,1.2,4.12c6.37,5.59,12.6,11.33,19,16.87
		c1.85,1.6,2.3,2.81,1.52,5.38c-2.72,8.88-4.92,17.91-7.51,27.61c-9.15,2.31-19.53,4.92-29.91,7.54c-0.19,13.1,1.54,25.5,5.59,37.66
		c11.01-0.65,21.71-1.28,31.41-1.85c4.89,7.62,9.26,14.82,14.07,21.71c1.82,2.6,1.95,4.39,0.28,7.04
		c-4.44,7.06-8.61,14.29-12.82,21.49c-0.83,1.42-2.29,3.01-0.11,4.6c8.87,6.46,17.73,12.93,26.6,19.39
		c1.89,1.37,3.27,0.87,4.79-0.87c5.63-6.49,11.55-12.73,17.07-19.31c2.13-2.54,4-2.38,6.84-1.57c7.01,2,14.09,3.86,21.27,5.07
		c3.09,0.52,4.11,1.49,4.76,4.4c2.08,9.35,4.53,18.62,6.79,27.73c7.69,1.11,29.58-2.42,37.81-6.01c-0.61-9.72-1.12-19.56-1.91-29.38
		c-0.2-2.46,0.66-3.38,2.68-4.54c6.54-3.77,12.8-7.99,19.3-11.83c1.09-0.65,3.14-0.79,4.2-0.19c6.7,3.81,13.27,7.85,19.83,11.89
		c3.67,2.26,5.14,3.19,6.79,2.4l20.82-28.13C2630.26,857.38,2628.73,855.96,2624.57,852.18z M2565.16,832.65
		c-18.61,25.14-54.08,30.44-79.22,11.83l0,0c-25.14-18.61-30.44-54.08-11.83-79.22l0,0c18.61-25.14,54.08-30.44,79.22-11.83l0,0
		C2578.48,772.05,2583.77,807.51,2565.16,832.65L2565.16,832.65z"/>
</g>
</svg>
